<?xml version="1.0" encoding="UTF-8" standalone="no"?>
<!DOCTYPE svg PUBLIC "-//W3C//DTD SVG 1.1//EN" "http://www.w3.org/Graphics/SVG/1.1/DTD/svg11.dtd">
<svg version="1.1" xmlns="http://www.w3.org/2000/svg" xmlns:xlink="http://www.w3.org/1999/xlink" preserveAspectRatio="xMidYMid meet" viewBox="0 0 640 640" width="60" height="60"><defs><path d="M78.85 372.23C67.77 333.68 66.21 292.75 74.18 254.36C94.1 160.44 169.43 84.18 263.13 63.46C307.82 53.44 357 55.64 399.78 69.23C433.04 79.93 476.86 107.45 501.97 133.43C534.36 166.89 559.12 214.45 566.74 257.59C581.81 344.72 554.79 425.56 490.88 484.67C437.54 533.92 360.64 558.55 288.94 549.55C190.22 537.15 105.87 465.98 78.85 372.23ZM305.74 517.96C305.07 517.27 301.72 513.81 295.69 507.6C291.85 509.13 289.71 509.97 289.29 510.14C275.6 515.75 256.55 508.28 251.01 495.03C250.82 494.58 249.9 492.31 248.24 488.23C242.52 488.85 239.35 489.19 238.71 489.25C233.52 489.76 217.24 490.78 202.86 491.29C179.65 492.31 176.36 492.82 176.36 495.37C176.36 504.2 227.11 529.68 261.4 538C279.07 542.24 294.83 543.94 319.25 544.28C320.29 544.29 325.48 544.35 334.84 544.45L325.31 536.47C315.96 527.98 309.43 521.81 305.74 517.96ZM428.88 520.16C436.33 516.43 438.06 514.73 439.45 509.46C440.31 505.9 441.87 499.95 442.91 496.22C446.03 484.16 448.45 449.51 447.24 431.34C446.55 421.66 445.85 413.84 445.51 413.84C445.33 413.84 438.75 418.09 430.96 423.18C402.04 442.21 358.56 462.25 325.83 471.76C324.88 472.03 320.15 473.39 311.63 475.84C311 479.91 310.66 482.18 310.59 482.63C309.9 486.37 307.47 492.82 305.05 496.9C304.76 497.38 303.31 499.82 300.72 504.2C306.22 509.8 309.28 512.92 309.9 513.54C326.52 530.36 342.98 542.92 348.34 542.92C351.12 542.92 360.99 541.4 370.51 539.53C388.87 535.79 414.33 527.47 428.88 520.16ZM520.15 442.89C520.82 441.95 524.17 437.25 530.2 428.79C528.33 423.49 527.29 420.55 527.08 419.96C525.35 415.2 521.37 405.01 517.9 397.2C517.5 396.26 515.48 391.56 511.84 383.1C507.48 383.81 505.05 384.21 504.57 384.29C499.37 384.97 495.56 384.46 491.58 382.42C491.2 382.23 489.29 381.27 485.86 379.53C480.56 384.63 477.62 387.46 477.03 388.03C472.18 392.78 464.9 399.24 460.75 402.29C460.25 402.67 457.77 404.54 453.3 407.9C452.99 431.34 452.82 444.36 452.78 446.96C452.26 476.01 451.57 488.57 449.49 496.22C447.93 501.82 446.72 507.09 446.55 507.94C446.55 510.14 451.22 507.77 463.52 499.27C479.63 488.06 508.03 459.87 520.15 442.89ZM303.83 483.82C306.26 471.93 295.52 457.66 282.53 455.62C267.64 453.08 252.57 465.98 252.57 481.1C252.57 487.72 259.15 498.59 265.21 502.16C271.79 506.07 281.49 506.58 289.63 503.18C295.87 500.63 302.1 491.97 303.83 483.82ZM185.2 380.89C185.45 379.9 186.72 374.92 189.01 365.95C183.6 361.36 180.6 358.81 180 358.3C169.78 349.47 165.97 342.17 165.97 330.62C165.97 315.33 173.07 302.6 185.2 296.65C190.74 293.76 191.78 292.41 191.08 289.35C186.93 272.02 183.29 251.98 181.56 237.04C178.44 208.33 178.61 208.84 172.55 206.8C165.28 204.26 160.95 200.35 158 193.39C156.27 189.31 154.89 187.95 152.64 188.63C150.9 188.97 145.19 189.82 139.99 190.5C134.8 191.01 123.19 193.39 114.53 195.93C113.47 196.23 108.16 197.7 98.6 200.35C95.48 207.69 93.75 211.76 93.4 212.58C81.28 240.77 75.91 269.48 75.91 304.29C75.91 335.04 78.85 353.04 88.21 380.72C100.16 415.71 117.48 444.08 142.59 469.38C156.79 483.82 158.7 485.18 164.76 485.18C165.19 485.18 167.32 485.18 171.17 485.18L171.17 473.63C175.21 432.3 179.88 401.39 185.2 380.89ZM247.37 473.97C247.37 472.1 249.8 467 252.74 462.59C253.09 462.07 254.82 459.46 257.94 454.78C250.35 440.71 246.14 432.9 245.29 431.34C238.19 418.43 228.67 398.9 223.99 387.86C223.43 386.52 220.6 379.84 215.5 367.82C209.27 368.12 205.81 368.29 205.11 368.33C193.16 368.83 194.89 365.95 187.62 397.71C183.29 416.9 178.96 448.83 177.4 472.1C177.36 472.97 177.12 477.33 176.71 485.18C189.28 485.08 196.27 485.02 197.67 485.01C209.27 485.01 224.51 484.33 231.44 483.65C244.6 482.46 247.37 480.76 247.37 473.97ZM429.75 416.9C430.77 416.22 435.91 412.82 445.16 406.71C444.43 400.49 444.03 397.04 443.95 396.35C442.56 382.76 435.29 346.93 430.79 330.62C425.94 312.96 413.47 275.76 411.73 273.55C406.37 266.93 355.45 236.7 327.39 223.79C326.56 223.39 322.4 221.41 314.92 217.84C310.55 222.12 308.13 224.5 307.64 224.98C296.73 235.85 288.77 237.21 269.02 231.43C266.25 230.58 263.65 232.96 254.99 245.19C244.25 260.31 224.86 292.41 224.86 294.95C224.86 295.63 227.46 298.18 230.75 300.73C249.1 314.49 247.72 347.43 228.32 360.17C224.51 362.55 221.39 365.1 221.39 365.61C221.39 368.83 242.87 414.69 252.4 432.19C261.05 447.98 264.52 452.57 266.42 451.72C267.81 451.21 272.66 450.36 277.16 449.85C288.42 449 299.85 454.44 305.05 463.27C307.12 466.83 309.2 469.89 309.55 469.89C309.9 469.89 318.04 467.51 327.73 464.63C361.68 454.44 400.13 436.43 429.75 416.9ZM563.8 312.45C564.66 284.93 563.63 266.08 561.03 266.08C560.16 266.08 558.26 269.65 556.52 274.23C549.94 291.05 538.51 313.3 528.81 327.9C528.16 328.91 524.86 333.95 518.94 343.02C520.81 346.18 521.85 347.93 522.06 348.28C526.39 355.59 526.04 366.8 521.02 373.42C517.21 378.52 517.04 379.03 519.81 385.65C528.81 408.07 534.01 420.64 534.53 420.64C534.7 420.64 537.82 414.69 541.11 407.56C556.87 374.1 562.59 349.98 563.8 312.45ZM481.88 376.48C480.11 372.91 479.13 370.93 478.93 370.53C475.12 362.72 475.3 358.3 479.45 350.15C481.36 346.42 482.4 342 481.88 340.3C480.84 336.73 426.46 283.06 424.03 283.06C423.16 283.06 424.03 287.48 425.94 292.91C434.42 316.69 446.55 367.14 449.14 389.22C449.84 394.82 450.88 399.92 451.22 400.77C452.09 402.12 456.07 399.07 472.35 384.8C473.62 383.69 476.8 380.92 481.88 376.48ZM516.34 351C507.16 335.55 482.74 342.68 482.92 360.68C483.09 374.27 497.64 382.25 510.45 375.8C518.94 371.38 521.71 359.83 516.34 351ZM222.26 301.75C219.49 300.05 213.43 298.18 208.75 297.5C201.82 296.48 199.05 296.99 191.08 300.9C178.44 306.84 172.9 315.67 172.9 329.77C172.9 355.59 198.36 370.02 221.74 357.46C242.7 345.91 243.04 314.32 222.26 301.75ZM510.63 337.92C514.61 338.94 515.65 337.75 524.83 323.15C534.36 308.03 543.36 290.03 550.64 272.36C550.86 271.82 551.95 269.1 553.93 264.21L548.73 257.76L543.36 251.3C532.24 250.69 526.07 250.35 524.83 250.28C473.22 247.57 429.05 229.73 382.64 192.54C381.43 191.52 385.75 201.2 392.34 214.28C399.09 227.36 407.4 245.19 411.04 254.02C417.45 269.31 418.32 270.33 432.52 281.88C449.49 295.8 469.41 315.33 481.01 329.43C486.55 336.22 489.67 338.77 491.58 337.92C492.96 337.24 496.95 336.73 500.24 336.73C503.53 336.73 508.2 337.24 510.63 337.92ZM250.32 241.62C251.07 240.61 254.82 235.58 261.57 226.51C259.18 222.33 257.86 220.01 257.59 219.54C255.34 215.64 253.09 209.18 252.57 205.11C252.51 204.6 252.22 202.05 251.7 197.46C243.49 195.73 238.93 194.77 238.02 194.58C230.4 192.88 219.83 191.18 214.64 190.5C213.99 190.43 210.76 190.09 204.94 189.48C203.07 193.56 202.03 195.82 201.82 196.27C199.57 201.2 196.8 203.92 191.78 205.96C188.14 207.65 185.02 209.86 185.02 210.71C185.2 219.03 190.56 257.08 193.68 272.36C193.95 273.63 195.28 279.97 197.67 291.39C202.97 291.79 205.91 292.02 206.5 292.07C211.35 292.41 216.2 292.58 217.06 292.41C218.1 292.24 223.3 284.25 228.84 274.57C234.38 264.89 244.08 250.11 250.32 241.62ZM370.51 187.27C369.91 186.31 366.91 181.5 361.51 172.84C356.52 173.45 353.75 173.79 353.19 173.86C346.44 174.53 343.32 174.02 337.78 170.97C337.31 170.71 334.94 169.41 330.68 167.06C325.79 171.04 323.08 173.24 322.54 173.69C318.04 177.25 313.19 181.16 311.8 182.18C309.72 183.71 309.9 184.89 313.01 189.82C315.26 193.56 316.65 198.65 316.82 204.09C316.82 204.65 316.82 207.48 316.82 212.58C332.1 219.92 340.59 223.99 342.28 224.81C356.31 231.43 375.88 242.3 385.93 248.93C395.97 255.38 404.81 260.81 405.5 260.81C406.37 260.98 406.37 259.29 405.85 257.25C403.25 249.27 379 201.2 370.51 187.27ZM557.91 244.51C556.87 238.4 555.83 237.72 552.54 240.94C547.86 245.53 551.5 257.59 557.74 257.59C560.51 257.59 561.03 256.91 560.16 253.85C559.47 251.64 558.6 247.4 557.91 244.51ZM551.5 234.15C553.93 232.79 553.75 231.26 549.77 220.22C535.91 182.52 509.94 146 479.97 121.71C479.03 120.94 474.29 117.09 465.77 110.16C456.11 112.1 450.74 113.18 449.66 113.39C429.92 117.47 401.17 126.98 385.41 134.79C384.61 135.18 380.63 137.1 373.46 140.57C374.19 144.54 374.59 146.75 374.67 147.19C375.54 152.28 374.84 155.68 371.9 161.63C367.22 170.63 366.53 169.61 389.05 188.97C430.96 225.15 476.51 242.3 538.69 245.53C542.32 245.7 544.05 244.51 546.13 240.6C547.52 237.89 549.94 235 551.5 234.15ZM309.2 205.45C310.07 192.88 305.91 185.74 295 180.99C285.65 176.91 277.16 177.93 269.71 184.05C249.45 200.86 261.57 230.41 287.73 228.2C294.65 227.7 297.43 226.34 302.45 221.41C307.82 215.98 308.68 214.11 309.2 205.45ZM198.88 184.39C198.88 171.31 184.68 162.48 173.07 168.25C167.36 171.14 162.51 178.78 162.51 184.56C162.51 190.67 167.7 198.31 173.42 200.69C180.52 203.75 182.42 203.75 188.49 200.69C195.41 197.12 198.88 191.69 198.88 184.39ZM155.41 182.52C157.8 177.83 159.12 175.23 159.39 174.7C162.33 168.59 165.28 165.87 170.99 163.15C171.51 162.91 174.11 161.66 178.79 159.42C180.55 150.45 181.54 145.47 181.73 144.47C185.2 126.98 189.87 112.88 196.11 102.18C200.26 94.71 200.26 94.54 196.63 96.58C166.32 112.37 133.58 143.45 113.49 175.55C107.95 184.05 103.62 191.35 103.62 191.86C103.62 192.37 109.68 191.01 117.13 188.8C124.4 186.76 136.18 184.39 142.94 183.71C144.6 183.55 148.76 183.15 155.41 182.52ZM298.81 176.23C299.31 176.47 301.79 177.66 306.26 179.8C311.56 175.11 314.5 172.51 315.09 171.99C319.94 167.74 324.62 164.17 325.48 164.17C326.35 164.17 326.52 159.59 325.83 153.81C324.96 144.98 325.31 142.94 328.6 138.53C328.85 138.19 330.12 136.49 332.41 133.43C329.19 129.46 327.4 127.25 327.04 126.81C319.77 117.81 302.45 102.52 290.15 94.2C273.87 83.33 262.09 78.74 247.89 77.89C236.81 77.21 234.21 77.72 225.9 81.63C205.81 91.31 191.78 116.79 186.93 151.78C185.72 160.61 185.72 160.61 190.91 162.48C198.36 165.02 202.17 168.93 204.07 176.23C205.63 182.01 206.67 182.86 212.39 183.88C215.85 184.39 225.9 186.25 234.38 187.95C255.69 192.03 254.99 192.03 259.67 185.57C268.33 173.18 284.26 169.27 298.81 176.23ZM368.61 150.76C368.61 141.25 358.74 131.9 348.86 131.9C346.44 131.9 341.76 134.28 338.3 137.17C333.1 141.58 332.24 143.62 332.24 149.57C332.24 157.89 335.87 163.66 343.32 166.89C349.9 169.61 349.56 169.61 356.14 167.4C362.03 165.36 368.61 156.7 368.61 150.76ZM446.37 107.96C447.11 107.82 450.81 107.14 457.46 105.92C455.07 103.98 453.74 102.91 453.47 102.69C447.07 97.6 422.47 85.03 407.75 79.25C387.83 71.61 360.64 65.67 338.99 64.48C337.73 64.41 331.44 64.07 320.11 63.46C320.74 66.92 321.08 68.85 321.15 69.23C323.4 81.46 329.12 100.99 334.14 113.73C334.5 114.6 336.29 118.96 339.51 126.81C345.02 126.81 348.08 126.81 348.69 126.81C355.45 126.81 359.26 127.83 363.59 130.88C366.88 133.09 369.65 135.13 369.99 135.13C370.17 135.3 375.71 132.75 382.12 129.53C396.32 122.56 431.13 110.84 446.37 107.96ZM316.3 76.03C316.17 75.19 315.47 71 314.23 63.46C305.6 64.07 300.81 64.41 299.85 64.48C280.45 65.83 254.3 70.93 258.8 72.63C283.57 81.46 295.52 88.59 314.92 106.26C322.02 112.71 328.08 117.81 328.25 117.64C328.25 117.64 326.18 111.01 323.4 103.03C320.81 95.05 317.52 82.99 316.3 76.03Z" id="d2KhUReAG"></path><path d="M180.87 326.2C183.46 312.79 198.19 303.28 211 306.84C230.92 312.45 235.77 339.11 218.8 349.98C214.29 352.87 203.21 354.57 198.01 353.21C187.27 350.32 178.79 337.07 180.87 326.2ZM223.13 328.75C223.13 320.94 213.43 311.94 204.94 311.94C196.45 311.94 186.75 320.94 186.75 328.75C186.75 335.21 190.74 343.36 194.89 345.74C198.88 348.11 210.31 348.11 214.64 345.91C218.97 343.53 223.13 335.38 223.13 328.75Z" id="aTR5sHVVx"></path></defs><g><g><g><use xlink:href="#d2KhUReAG" opacity="1" fill="#ffffff" fill-opacity="1"></use><g><use xlink:href="#d2KhUReAG" opacity="1" fill-opacity="0" stroke="#000000" stroke-width="1" stroke-opacity="0"></use></g></g><g><use xlink:href="#aTR5sHVVx" opacity="1" fill="#ffffff" fill-opacity="1"></use><g><use xlink:href="#aTR5sHVVx" opacity="1" fill-opacity="0" stroke="#000000" stroke-width="1" stroke-opacity="0"></use></g></g></g></g></svg>