<?xml version="1.0" encoding="UTF-8" standalone="no"?>
<!DOCTYPE svg PUBLIC "-//W3C//DTD SVG 1.1//EN" "http://www.w3.org/Graphics/SVG/1.1/DTD/svg11.dtd">
<svg version="1.1" xmlns="http://www.w3.org/2000/svg" xmlns:xlink="http://www.w3.org/1999/xlink" preserveAspectRatio="xMidYMid meet" viewBox="0 0 640 640" width="500" height="500"><defs><path d="M209.02 435.71C211.86 419.61 224.16 409.45 241.12 409.45C259.62 409.45 273.13 422.93 273.13 441.65C273.13 445.27 272.83 449.6 272.42 451.31C270.39 459.66 264.19 467.11 255.45 471.54C248.24 475.16 236.25 475.76 228.73 472.85C214.3 467.11 206.17 451.91 209.02 435.71ZM266.83 442.15C266.83 429.97 262.46 422.43 252.91 417.8C248.44 415.58 245.9 415.08 240.41 415.08C224.87 415.28 214.91 425.75 214.81 442.05C214.81 458.35 224.97 468.82 240.72 468.82C244.68 468.82 249.36 468.12 251.49 467.21C260.94 463.39 266.93 453.52 266.83 442.15Z" id="afgvKPFwd"></path><path d="M285.73 456.54C283.19 451.21 282.78 448.89 282.78 441.65C282.68 430.68 285.32 424.54 292.84 417.7C303.82 407.73 321.39 406.53 332.47 414.88C336.53 418 336.94 419.91 333.99 421.52C332.27 422.43 331.25 422.13 328.1 419.61C322.82 415.48 317.02 414.18 310.01 415.38C300.77 417.09 294.98 421.52 291.42 429.57C287.05 439.54 287.86 449.9 293.66 458.46C301.78 470.43 320.28 472.54 330.54 462.68C330.75 462.48 331.8 461.47 333.69 459.66L336.13 461.68L338.57 463.59C336.86 465.4 335.91 466.41 335.72 466.61C328.3 474.26 313.67 477.07 302.9 472.85C295.28 469.83 289.08 464.09 285.73 456.54Z" id="fhoPq509V"></path><path d="M46.45 410.45L49.5 410.45L52.54 410.45L52.54 424.04L52.54 437.62L69.82 437.62L86.99 437.62L87.29 424.34L87.6 410.95L90.44 410.65L93.19 410.35L93.19 442.15L93.19 473.95L90.44 473.65L87.6 473.35L87.29 458.56L86.99 443.66L69.82 443.66L52.54 443.66L52.54 458.76L52.54 473.85L49.5 473.85L46.45 473.85L46.45 442.15L46.45 410.45Z" id="b1YG4lUYf"></path><path d="M124.68 446.98C118.22 437.08 114.63 431.58 113.91 430.48C107.92 421.42 102.84 413.17 102.53 412.16C102.13 410.55 102.53 410.35 105.38 410.65C108.53 410.95 109.44 411.96 117.57 424.74C122.35 432.39 126.61 438.83 127.02 439.23C127.33 439.54 132 433.2 137.28 425.14C146.33 411.36 147.24 410.45 150.19 410.45C152.42 410.45 153.24 410.85 152.83 411.86C152.52 412.56 147.44 420.52 141.55 429.47C140.84 430.55 137.28 435.95 130.88 445.67L130.58 459.56L130.27 473.35L127.53 473.65L124.68 473.95L124.68 460.47L124.68 446.98Z" id="f5pxkF89QZ"></path><path d="M161.26 410.15C169.07 410.45 173.4 410.62 174.27 410.65C187.68 411.16 190.22 411.76 195 416.29C200.99 421.82 201.3 431.99 195.5 438.03C191.44 442.25 186.56 443.66 175.79 443.66C175.23 443.66 172.42 443.66 167.36 443.66L167.36 458.76L167.36 473.85L164.31 473.85L161.26 473.85L161.26 442.05L161.26 410.15ZM188.49 418.5C185.85 416.89 183.31 416.49 176.3 416.49C175.7 416.49 172.72 416.49 167.36 416.49L167.36 427.06L167.36 437.62C173.09 437.62 176.27 437.62 176.91 437.62C185.75 437.62 186.77 437.42 189.61 435.01C195.3 430.28 194.69 422.33 188.49 418.5Z" id="a46GstYx7n"></path><path d="M349.23 410.45L368.34 410.65L387.34 410.95L387.34 413.47L387.34 415.99L371.38 416.29L355.33 416.59L355.33 427.06L355.33 437.52L370.37 437.82L385.3 438.13L385.61 440.94L385.91 443.66L370.67 443.66L355.33 443.66L355.33 455.74L355.33 467.81L372.1 467.81L388.86 467.81L388.86 470.83L388.86 473.85L369.05 473.85L349.23 473.85L349.23 442.15L349.23 410.45Z" id="b3A5VdLZ1O"></path><path d="M401.26 441.15C401.28 439.13 401.38 429.07 401.56 410.95L405.52 410.95L409.39 410.95C419.99 425.99 425.89 434.34 427.06 436.01C436.72 449.8 445.35 461.78 446.17 462.68C447.69 464.09 447.79 461.78 447.79 437.22C447.79 435.43 447.79 426.47 447.79 410.35L450.64 410.65L453.38 410.95L453.38 442.15L453.38 473.35L449.82 473.65L446.17 473.95L427.47 447.08L408.67 420.21L408.17 446.78L407.66 473.35C405.95 473.53 405 473.63 404.81 473.65C403.19 473.85 401.87 473.45 401.56 472.64C401.26 471.94 401.16 457.75 401.26 441.15Z" id="e1nMdv8KSP"></path><path d="M484.37 444.47C484.37 442.6 484.37 433.28 484.37 416.49L473.7 416.49L463.03 416.49L463.03 413.47L463.03 410.45L487.42 410.45L511.8 410.45L511.8 413.47L511.8 416.49L501.14 416.49L490.47 416.49L490.47 445.17L490.47 473.85C489.06 473.85 488.29 473.85 488.13 473.85C486.81 473.85 485.39 473.55 485.08 473.15C484.68 472.85 484.37 459.86 484.37 444.47Z" id="b7LZh5EOT"></path><path d="M521.15 441.15C521.17 439.13 521.27 429.07 521.46 410.95L540.76 410.95L560.07 410.95L560.07 413.47L560.07 415.99L544.12 416.29L528.06 416.59L528.06 427.06L528.06 437.52L543.1 437.82L558.04 438.13L558.34 440.94L558.64 443.66L543.4 443.66L528.06 443.66L528.06 455.74L528.06 467.81L544.83 467.81L561.59 467.81L561.59 470.83L561.59 473.85C549.7 473.85 543.1 473.85 541.78 473.85C526.74 473.85 521.76 473.55 521.46 472.54C521.15 471.84 521.05 457.75 521.15 441.15Z" id="a5sntigyHd"></path><path d="M573.99 441.15C574.01 439.13 574.11 429.07 574.29 410.95C581.61 410.95 585.67 410.95 586.49 410.95C594.51 410.95 599.9 411.46 602.23 412.36C610.16 415.48 614.22 422.53 612.9 430.78C611.99 435.81 606.7 441.35 601.73 442.25C599.8 442.55 598.17 443.26 598.17 443.76C598.17 444.16 602.03 450.91 606.81 458.76C613.31 469.42 615.04 473.05 613.92 473.45C610.36 474.86 608.53 472.85 599.8 458.46C599.19 457.47 596.18 452.54 590.75 443.66L585.88 443.66L581 443.66L580.69 458.56L580.39 473.35C578.68 473.53 577.73 473.63 577.54 473.65C575.92 473.85 574.6 473.45 574.29 472.64C573.99 471.94 573.89 457.75 573.99 441.15ZM605.89 423.13C603.86 418.2 599.49 416.49 589.03 416.49C588.48 416.49 585.77 416.49 580.9 416.49L580.9 427.16L580.9 437.82C586.93 437.58 590.29 437.45 590.96 437.42C599.9 437.12 601.32 436.82 603.66 434.7C607.01 431.59 607.82 427.66 605.89 423.13Z" id="a4cq0sOMq"></path><path d="M178.53 265.18C172.03 242.34 171.11 218.09 175.79 195.34C187.47 139.69 231.67 94.51 286.64 82.23C312.85 76.29 341.71 77.6 366.81 85.65C386.31 91.99 412.02 108.29 426.75 123.69C445.75 143.51 460.28 171.69 464.75 197.25C473.59 248.88 457.74 296.78 420.25 331.81C388.96 360.99 343.84 375.58 301.78 370.25C243.86 362.9 194.38 320.74 178.53 265.18ZM311.63 351.53C311.24 351.12 309.28 349.08 305.74 345.39C303.48 346.3 302.23 346.8 301.98 346.9C293.95 350.22 282.78 345.79 279.53 337.94C279.42 337.68 278.88 336.33 277.9 333.92C274.55 334.28 272.68 334.48 272.31 334.52C269.26 334.82 259.71 335.43 251.28 335.73C237.66 336.33 235.73 336.64 235.73 338.15C235.73 343.38 265.5 358.47 285.62 363.41C295.99 365.92 305.23 366.93 319.56 367.13C320.17 367.14 323.22 367.17 328.7 367.23L323.12 362.5C317.63 357.47 313.8 353.81 311.63 351.53ZM383.88 352.84C388.24 350.62 389.26 349.62 390.07 346.5C390.58 344.39 391.5 340.86 392.11 338.65C393.93 331.5 395.36 310.97 394.65 300.21C394.24 294.47 393.83 289.84 393.63 289.84C393.53 289.84 389.67 292.36 385.1 295.38C368.13 306.65 342.62 318.52 323.42 324.16C322.86 324.32 320.09 325.12 315.09 326.57C314.72 328.99 314.52 330.33 314.48 330.6C314.07 332.81 312.65 336.64 311.23 339.05C311.06 339.34 310.21 340.78 308.69 343.38C311.92 346.7 313.71 348.55 314.07 348.91C323.83 358.88 333.48 366.32 336.63 366.32C338.25 366.32 344.05 365.42 349.63 364.31C360.4 362.1 375.34 357.17 383.88 352.84ZM437.42 307.05C437.82 306.49 439.78 303.71 443.32 298.7C442.22 295.56 441.61 293.81 441.49 293.46C440.47 290.65 438.13 284.61 436.1 279.98C435.86 279.42 434.68 276.64 432.55 271.63C429.98 272.05 428.56 272.28 428.28 272.33C425.23 272.73 422.99 272.43 420.66 271.22C420.43 271.11 419.32 270.54 417.3 269.51C414.2 272.53 412.47 274.21 412.12 274.54C409.28 277.36 405.01 281.19 402.57 283C402.28 283.22 400.82 284.33 398.2 286.32C398.02 300.21 397.92 307.92 397.9 309.46C397.59 326.67 397.19 334.12 395.97 338.65C395.05 341.97 394.34 345.09 394.24 345.59C394.24 346.9 396.98 345.49 404.2 340.46C413.65 333.82 430.31 317.11 437.42 307.05ZM310.52 331.3C311.94 324.26 305.64 315.8 298.02 314.6C289.28 313.09 280.44 320.74 280.44 329.69C280.44 333.62 284.3 340.06 287.86 342.17C291.72 344.49 297.41 344.79 302.18 342.78C305.84 341.27 309.5 336.13 310.52 331.3ZM240.92 270.32C241.06 269.73 241.81 266.77 243.15 261.46C239.98 258.74 238.22 257.23 237.87 256.93C231.87 251.7 229.64 247.37 229.64 240.53C229.64 231.47 233.8 223.92 240.92 220.4C244.17 218.69 244.78 217.89 244.37 216.07C241.93 205.81 239.8 193.93 238.78 185.08C236.95 168.07 237.05 168.37 233.5 167.16C229.23 165.66 226.69 163.34 224.96 159.21C223.95 156.8 223.13 155.99 221.81 156.4C220.8 156.6 217.44 157.1 214.4 157.5C211.35 157.81 204.54 159.21 199.46 160.72C198.84 160.9 195.72 161.77 190.11 163.34C188.28 167.69 187.27 170.1 187.06 170.59C179.95 187.29 176.8 204.3 176.8 224.93C176.8 243.15 178.53 253.81 184.02 270.22C191.03 290.95 201.19 307.75 215.92 322.75C224.25 331.3 225.37 332.11 228.93 332.11C229.18 332.11 230.43 332.11 232.69 332.11L232.69 325.26C235.06 300.78 237.8 282.46 240.92 270.32ZM277.39 325.47C277.39 324.36 278.81 321.34 280.54 318.72C280.75 318.41 281.76 316.87 283.59 314.09C279.14 305.76 276.67 301.13 276.17 300.21C272.01 292.56 266.42 280.98 263.68 274.44C263.34 273.65 261.68 269.69 258.7 262.57C255.04 262.75 253.01 262.85 252.6 262.87C245.59 263.17 246.61 261.46 242.34 280.28C239.8 291.65 237.26 310.57 236.34 324.36C236.32 324.88 236.18 327.46 235.94 332.11C243.31 332.05 247.41 332.01 248.23 332.01C255.04 332.01 263.98 331.6 268.04 331.2C275.77 330.5 277.39 329.49 277.39 325.47ZM384.38 291.65C384.99 291.25 388 289.24 393.43 285.61C393 281.93 392.76 279.88 392.72 279.47C391.9 271.42 387.64 250.19 384.99 240.53C382.15 230.06 374.83 208.02 373.82 206.71C370.67 202.79 340.79 184.88 324.33 177.23C323.85 176.99 321.41 175.82 317.02 173.71C314.46 176.24 313.04 177.65 312.75 177.93C306.35 184.37 301.68 185.18 290.09 181.76C288.47 181.25 286.94 182.66 281.86 189.91C275.56 198.87 264.18 217.89 264.18 219.39C264.18 219.8 265.71 221.31 267.64 222.82C278.41 230.97 277.6 250.49 266.22 258.04C263.98 259.45 262.15 260.96 262.15 261.26C262.15 263.17 274.75 290.34 280.34 300.71C285.42 310.07 287.45 312.79 288.57 312.28C289.38 311.98 292.23 311.48 294.87 311.18C301.47 310.67 308.18 313.89 311.23 319.13C312.45 321.24 313.67 323.05 313.87 323.05C314.07 323.05 318.85 321.64 324.54 319.93C344.45 313.89 367.01 303.23 384.38 291.65ZM463.03 229.76C463.54 213.46 462.93 202.29 461.4 202.29C460.89 202.29 459.78 204.4 458.76 207.12C454.9 217.08 448.19 230.26 442.5 238.92C442.12 239.52 440.19 242.5 436.71 247.88C437.81 249.75 438.42 250.79 438.54 250.99C441.08 255.32 440.88 261.96 437.93 265.89C435.7 268.91 435.59 269.21 437.22 273.13C442.5 286.42 445.55 293.87 445.86 293.87C445.96 293.87 447.79 290.34 449.72 286.12C458.96 266.29 462.32 252 463.03 229.76ZM414.97 267.7C413.93 265.59 413.36 264.41 413.24 264.18C411 259.55 411.11 256.93 413.54 252.1C414.66 249.89 415.27 247.27 414.97 246.26C414.36 244.15 382.45 212.35 381.03 212.35C380.52 212.35 381.03 214.97 382.15 218.19C387.13 232.28 394.24 262.17 395.76 275.25C396.17 278.57 396.78 281.59 396.98 282.09C397.49 282.9 399.83 281.09 409.38 272.63C410.12 271.97 411.99 270.33 414.97 267.7ZM435.19 252.6C429.8 243.45 415.48 247.67 415.58 258.34C415.68 266.39 424.21 271.12 431.73 267.3C436.71 264.68 438.34 257.84 435.19 252.6ZM262.66 223.42C261.03 222.41 257.48 221.31 254.73 220.9C250.67 220.3 249.04 220.6 244.37 222.92C236.95 226.44 233.7 231.67 233.7 240.03C233.7 255.32 248.64 263.88 262.35 256.43C274.65 249.59 274.85 230.87 262.66 223.42ZM431.83 244.86C434.17 245.46 434.78 244.76 440.17 236.1C445.75 227.14 451.04 216.48 455.31 206.01C455.43 205.69 456.08 204.08 457.24 201.18L454.19 197.36L451.04 193.53C444.51 193.17 440.89 192.97 440.17 192.93C409.89 191.32 383.98 180.75 356.75 158.71C356.04 158.11 358.58 163.84 362.44 171.59C366.4 179.34 371.28 189.91 373.41 195.14C377.17 204.2 377.68 204.8 386.01 211.65C395.97 219.9 407.65 231.47 414.46 239.82C417.71 243.85 419.54 245.36 420.66 244.86C421.47 244.45 423.81 244.15 425.74 244.15C427.67 244.15 430.41 244.45 431.83 244.86ZM279.12 187.8C279.56 187.2 281.76 184.21 285.72 178.84C284.32 176.36 283.54 174.99 283.39 174.71C282.07 172.4 280.75 168.57 280.44 166.16C280.41 165.86 280.24 164.35 279.93 161.63C275.12 160.6 272.44 160.03 271.91 159.92C267.43 158.91 261.24 157.91 258.19 157.5C257.81 157.46 255.91 157.26 252.5 156.9C251.4 159.31 250.79 160.66 250.67 160.93C249.35 163.84 247.72 165.45 244.78 166.66C242.64 167.67 240.81 168.98 240.81 169.48C240.92 174.41 244.07 196.95 245.89 206.01C246.05 206.76 246.83 210.52 248.23 217.28C251.34 217.52 253.07 217.66 253.41 217.68C256.26 217.89 259.1 217.99 259.61 217.89C260.22 217.78 263.27 213.05 266.52 207.32C269.77 201.58 275.46 192.83 279.12 187.8ZM349.63 155.59C349.28 155.02 347.52 152.17 344.35 147.04C341.42 147.4 339.8 147.6 339.47 147.64C335.51 148.04 333.68 147.74 330.43 145.93C330.15 145.78 328.76 145 326.26 143.62C323.4 145.97 321.81 147.28 321.49 147.54C318.85 149.65 316 151.97 315.19 152.57C313.97 153.48 314.07 154.18 315.9 157.1C317.22 159.31 318.03 162.33 318.14 165.55C318.14 165.89 318.14 167.57 318.14 170.59C327.1 174.93 332.08 177.35 333.07 177.83C341.3 181.76 352.78 188.2 358.68 192.12C364.57 195.95 369.75 199.17 370.16 199.17C370.67 199.27 370.67 198.26 370.36 197.05C368.84 192.32 354.61 163.84 349.63 155.59ZM459.57 189.51C458.96 185.88 458.35 185.48 456.42 187.39C453.68 190.11 455.81 197.25 459.47 197.25C461.1 197.25 461.4 196.85 460.89 195.04C460.49 193.73 459.98 191.22 459.57 189.51ZM455.81 183.37C457.24 182.56 457.13 181.66 454.8 175.11C446.67 152.77 431.43 131.14 413.85 116.75C413.29 116.29 410.52 114.01 405.52 109.9C399.85 111.05 396.7 111.69 396.07 111.81C384.49 114.23 367.62 119.87 358.37 124.49C357.91 124.72 355.57 125.86 351.36 127.92C351.79 130.27 352.03 131.58 352.07 131.84C352.58 134.86 352.17 136.87 350.45 140.4C347.7 145.73 347.3 145.13 360.51 156.6C385.1 178.03 411.82 188.2 448.29 190.11C450.43 190.21 451.44 189.51 452.66 187.19C453.48 185.58 454.9 183.87 455.81 183.37ZM313.67 166.36C314.17 158.91 311.74 154.69 305.33 151.87C299.85 149.45 294.87 150.06 290.5 153.68C278.61 163.64 285.72 181.15 301.07 179.84C305.13 179.54 306.76 178.74 309.7 175.82C312.85 172.6 313.36 171.49 313.67 166.36ZM248.94 153.88C248.94 146.13 240.61 140.9 233.8 144.32C230.45 146.03 227.61 150.56 227.61 153.98C227.61 157.6 230.65 162.13 234.01 163.54C238.17 165.35 239.29 165.35 242.85 163.54C246.91 161.43 248.94 158.21 248.94 153.88ZM223.44 152.77C224.84 150 225.62 148.45 225.78 148.14C227.5 144.52 229.23 142.91 232.58 141.3C232.89 141.15 234.41 140.42 237.16 139.09C238.19 133.77 238.77 130.82 238.88 130.23C240.92 119.87 243.66 111.51 247.32 105.17C249.76 100.74 249.76 100.64 247.62 101.85C229.84 111.21 210.64 129.63 198.85 148.65C195.6 153.68 193.06 158.01 193.06 158.31C193.06 158.61 196.62 157.81 200.98 156.5C205.25 155.29 212.16 153.88 216.12 153.48C217.1 153.38 219.54 153.15 223.44 152.77ZM307.57 149.05C307.86 149.19 309.32 149.9 311.94 151.16C315.05 148.39 316.77 146.84 317.12 146.53C319.97 144.02 322.71 141.9 323.22 141.9C323.72 141.9 323.83 139.19 323.42 135.77C322.91 130.53 323.12 129.33 325.05 126.71C325.19 126.51 325.94 125.5 327.28 123.69C325.39 121.33 324.34 120.03 324.13 119.76C319.86 114.43 309.7 105.37 302.49 100.44C292.94 94 286.03 91.28 277.7 90.78C271.19 90.38 269.67 90.68 264.79 93C253.01 98.73 244.78 113.83 241.93 134.56C241.22 139.79 241.22 139.79 244.27 140.9C248.64 142.41 250.87 144.72 251.99 149.05C252.91 152.47 253.51 152.97 256.87 153.58C258.9 153.88 264.79 154.99 269.77 155.99C282.27 158.41 281.86 158.41 284.61 154.59C289.69 147.24 299.03 144.92 307.57 149.05ZM348.52 133.95C348.52 128.32 342.73 122.78 336.93 122.78C335.51 122.78 332.77 124.19 330.74 125.9C327.69 128.52 327.18 129.73 327.18 133.25C327.18 138.18 329.31 141.6 333.68 143.51C337.54 145.13 337.34 145.13 341.2 143.82C344.66 142.61 348.52 137.48 348.52 133.95ZM394.14 108.59C394.57 108.51 396.74 108.11 400.64 107.39C399.24 106.24 398.46 105.6 398.3 105.47C394.54 102.46 380.12 95.01 371.48 91.59C359.8 87.06 343.84 83.54 331.14 82.83C330.4 82.79 326.71 82.59 320.07 82.23C320.43 84.28 320.64 85.42 320.68 85.65C322 92.89 325.35 104.47 328.3 112.02C328.51 112.53 329.56 115.12 331.45 119.76C334.68 119.76 336.47 119.76 336.83 119.76C340.79 119.76 343.03 120.37 345.57 122.18C347.5 123.49 349.13 124.7 349.33 124.7C349.43 124.8 352.68 123.29 356.44 121.37C364.77 117.25 385.2 110.3 394.14 108.59ZM317.83 89.67C317.75 89.18 317.34 86.7 316.61 82.23C311.55 82.59 308.74 82.79 308.18 82.83C296.8 83.64 281.46 86.66 284.1 87.66C298.63 92.89 305.64 97.12 317.02 107.59C321.18 111.41 324.74 114.43 324.84 114.33C324.84 114.33 323.62 110.41 322 105.68C320.47 100.95 318.54 93.8 317.83 89.67Z" id="c19rOrPGb3"></path><path d="M238.38 236.86C239.9 228.91 248.54 223.27 256.05 225.39C267.74 228.71 270.58 244.51 260.63 250.95C257.99 252.66 251.48 253.66 248.43 252.86C242.13 251.15 237.16 243.3 238.38 236.86ZM263.17 238.37C263.17 233.74 257.48 228.4 252.5 228.4C247.52 228.4 241.83 233.74 241.83 238.37C241.83 242.19 244.17 247.02 246.61 248.43C248.94 249.84 255.65 249.84 258.19 248.53C260.73 247.12 263.17 242.29 263.17 238.37Z" id="b3cqM3ldK"></path></defs><g><g><g><g><filter id="shadow7775665" x="198.45" y="399.45" width="86.68" height="87.25" filterUnits="userSpaceOnUse" primitiveUnits="userSpaceOnUse"><feFlood></feFlood><feComposite in2="SourceAlpha" operator="in"></feComposite><feGaussianBlur stdDeviation="1"></feGaussianBlur><feOffset dx="2" dy="2" result="afterOffset"></feOffset><feFlood flood-color="#000000" flood-opacity="0.45"></feFlood><feComposite in2="afterOffset" operator="in"></feComposite><feMorphology operator="dilate" radius="1"></feMorphology><feComposite in2="SourceAlpha" operator="out"></feComposite></filter><path d="M209.02 435.71C211.86 419.61 224.16 409.45 241.12 409.45C259.62 409.45 273.13 422.93 273.13 441.65C273.13 445.27 272.83 449.6 272.42 451.31C270.39 459.66 264.19 467.11 255.45 471.54C248.24 475.16 236.25 475.76 228.73 472.85C214.3 467.11 206.17 451.91 209.02 435.71ZM266.83 442.15C266.83 429.97 262.46 422.43 252.91 417.8C248.44 415.58 245.9 415.08 240.41 415.08C224.87 415.28 214.91 425.75 214.81 442.05C214.81 458.35 224.97 468.82 240.72 468.82C244.68 468.82 249.36 468.12 251.49 467.21C260.94 463.39 266.93 453.52 266.83 442.15Z" id="a2jyKjX7k" fill="white" fill-opacity="1" filter="url(#shadow7775665)"></path></g><use xlink:href="#afgvKPFwd" opacity="1" fill="#fd5f00" fill-opacity="1"></use><g><use xlink:href="#afgvKPFwd" opacity="1" fill-opacity="0" stroke="#fd5f00" stroke-width="1" stroke-opacity="0"></use></g></g><g><g><filter id="shadow14061766" x="272.78" y="399.34" width="77.78" height="87.48" filterUnits="userSpaceOnUse" primitiveUnits="userSpaceOnUse"><feFlood></feFlood><feComposite in2="SourceAlpha" operator="in"></feComposite><feGaussianBlur stdDeviation="1"></feGaussianBlur><feOffset dx="2" dy="2" result="afterOffset"></feOffset><feFlood flood-color="#000000" flood-opacity="0.45"></feFlood><feComposite in2="afterOffset" operator="in"></feComposite><feMorphology operator="dilate" radius="1"></feMorphology><feComposite in2="SourceAlpha" operator="out"></feComposite></filter><path d="M285.73 456.54C283.19 451.21 282.78 448.89 282.78 441.65C282.68 430.68 285.32 424.54 292.84 417.7C303.82 407.73 321.39 406.53 332.47 414.88C336.53 418 336.94 419.91 333.99 421.52C332.27 422.43 331.25 422.13 328.1 419.61C322.82 415.48 317.02 414.18 310.01 415.38C300.77 417.09 294.98 421.52 291.42 429.57C287.05 439.54 287.86 449.9 293.66 458.46C301.78 470.43 320.28 472.54 330.54 462.68C330.75 462.48 331.8 461.47 333.69 459.66L336.13 461.68L338.57 463.59C336.86 465.4 335.91 466.41 335.72 466.61C328.3 474.26 313.67 477.07 302.9 472.85C295.28 469.83 289.08 464.09 285.73 456.54Z" id="b9O4NGDuZ" fill="white" fill-opacity="1" filter="url(#shadow14061766)"></path></g><use xlink:href="#fhoPq509V" opacity="1" fill="#fd5f00" fill-opacity="1"></use><g><use xlink:href="#fhoPq509V" opacity="1" fill-opacity="0" stroke="#fd5f00" stroke-width="1" stroke-opacity="0"></use></g></g><g><g><filter id="shadow11160680" x="36.45" y="400.35" width="68.74" height="85.6" filterUnits="userSpaceOnUse" primitiveUnits="userSpaceOnUse"><feFlood></feFlood><feComposite in2="SourceAlpha" operator="in"></feComposite><feGaussianBlur stdDeviation="1"></feGaussianBlur><feOffset dx="2" dy="2" result="afterOffset"></feOffset><feFlood flood-color="#000000" flood-opacity="0.45"></feFlood><feComposite in2="afterOffset" operator="in"></feComposite><feMorphology operator="dilate" radius="1"></feMorphology><feComposite in2="SourceAlpha" operator="out"></feComposite></filter><path d="M46.45 410.45L49.5 410.45L52.54 410.45L52.54 424.04L52.54 437.62L69.82 437.62L86.99 437.62L87.29 424.34L87.6 410.95L90.44 410.65L93.19 410.35L93.19 442.15L93.19 473.95L90.44 473.65L87.6 473.35L87.29 458.56L86.99 443.66L69.82 443.66L52.54 443.66L52.54 458.76L52.54 473.85L49.5 473.85L46.45 473.85L46.45 442.15L46.45 410.45Z" id="br8xGFDOI" fill="white" fill-opacity="1" filter="url(#shadow11160680)"></path></g><use xlink:href="#b1YG4lUYf" opacity="1" fill="#fd5f00" fill-opacity="1"></use><g><use xlink:href="#b1YG4lUYf" opacity="1" fill-opacity="0" stroke="#fd5f00" stroke-width="1" stroke-opacity="0"></use></g></g><g><g><filter id="shadow1519793" x="92.4" y="400.45" width="72.53" height="85.5" filterUnits="userSpaceOnUse" primitiveUnits="userSpaceOnUse"><feFlood></feFlood><feComposite in2="SourceAlpha" operator="in"></feComposite><feGaussianBlur stdDeviation="1"></feGaussianBlur><feOffset dx="2" dy="2" result="afterOffset"></feOffset><feFlood flood-color="#000000" flood-opacity="0.45"></feFlood><feComposite in2="afterOffset" operator="in"></feComposite><feMorphology operator="dilate" radius="1"></feMorphology><feComposite in2="SourceAlpha" operator="out"></feComposite></filter><path d="M124.68 446.98C118.22 437.08 114.63 431.58 113.91 430.48C107.92 421.42 102.84 413.17 102.53 412.16C102.13 410.55 102.53 410.35 105.38 410.65C108.53 410.95 109.44 411.96 117.57 424.74C122.35 432.39 126.61 438.83 127.02 439.23C127.33 439.54 132 433.2 137.28 425.14C146.33 411.36 147.24 410.45 150.19 410.45C152.42 410.45 153.24 410.85 152.83 411.86C152.52 412.56 147.44 420.52 141.55 429.47C140.84 430.55 137.28 435.95 130.88 445.67L130.58 459.56L130.27 473.35L127.53 473.65L124.68 473.95L124.68 460.47L124.68 446.98Z" id="a18NfrYWbi" fill="white" fill-opacity="1" filter="url(#shadow1519793)"></path></g><use xlink:href="#f5pxkF89QZ" opacity="1" fill="#fd5f00" fill-opacity="1"></use><g><use xlink:href="#f5pxkF89QZ" opacity="1" fill-opacity="0" stroke="#fd5f00" stroke-width="1" stroke-opacity="0"></use></g></g><g><g><filter id="shadow4945011" x="151.26" y="400.15" width="60.41" height="85.7" filterUnits="userSpaceOnUse" primitiveUnits="userSpaceOnUse"><feFlood></feFlood><feComposite in2="SourceAlpha" operator="in"></feComposite><feGaussianBlur stdDeviation="1"></feGaussianBlur><feOffset dx="2" dy="2" result="afterOffset"></feOffset><feFlood flood-color="#000000" flood-opacity="0.45"></feFlood><feComposite in2="afterOffset" operator="in"></feComposite><feMorphology operator="dilate" radius="1"></feMorphology><feComposite in2="SourceAlpha" operator="out"></feComposite></filter><path d="M161.26 410.15C169.07 410.45 173.4 410.62 174.27 410.65C187.68 411.16 190.22 411.76 195 416.29C200.99 421.82 201.3 431.99 195.5 438.03C191.44 442.25 186.56 443.66 175.79 443.66C175.23 443.66 172.42 443.66 167.36 443.66L167.36 458.76L167.36 473.85L164.31 473.85L161.26 473.85L161.26 442.05L161.26 410.15ZM188.49 418.5C185.85 416.89 183.31 416.49 176.3 416.49C175.7 416.49 172.72 416.49 167.36 416.49L167.36 427.06L167.36 437.62C173.09 437.62 176.27 437.62 176.91 437.62C185.75 437.62 186.77 437.42 189.61 435.01C195.3 430.28 194.69 422.33 188.49 418.5Z" id="e4TZiaTmE" fill="white" fill-opacity="1" filter="url(#shadow4945011)"></path></g><use xlink:href="#a46GstYx7n" opacity="1" fill="#fd5f00" fill-opacity="1"></use><g><use xlink:href="#a46GstYx7n" opacity="1" fill-opacity="0" stroke="#fd5f00" stroke-width="1" stroke-opacity="0"></use></g></g><g><g><filter id="shadow1521767" x="339.23" y="400.45" width="61.63" height="85.4" filterUnits="userSpaceOnUse" primitiveUnits="userSpaceOnUse"><feFlood></feFlood><feComposite in2="SourceAlpha" operator="in"></feComposite><feGaussianBlur stdDeviation="1"></feGaussianBlur><feOffset dx="2" dy="2" result="afterOffset"></feOffset><feFlood flood-color="#000000" flood-opacity="0.45"></feFlood><feComposite in2="afterOffset" operator="in"></feComposite><feMorphology operator="dilate" radius="1"></feMorphology><feComposite in2="SourceAlpha" operator="out"></feComposite></filter><path d="M349.23 410.45L368.34 410.65L387.34 410.95L387.34 413.47L387.34 415.99L371.38 416.29L355.33 416.59L355.33 427.06L355.33 437.52L370.37 437.82L385.3 438.13L385.61 440.94L385.91 443.66L370.67 443.66L355.33 443.66L355.33 455.74L355.33 467.81L372.1 467.81L388.86 467.81L388.86 470.83L388.86 473.85L369.05 473.85L349.23 473.85L349.23 442.15L349.23 410.45Z" id="d19dWYi60o" fill="white" fill-opacity="1" filter="url(#shadow1521767)"></path></g><use xlink:href="#b3A5VdLZ1O" opacity="1" fill="#fd5f00" fill-opacity="1"></use><g><use xlink:href="#b3A5VdLZ1O" opacity="1" fill-opacity="0" stroke="#fd5f00" stroke-width="1" stroke-opacity="0"></use></g></g><g><g><filter id="shadow12505138" x="391.22" y="400.35" width="74.16" height="85.6" filterUnits="userSpaceOnUse" primitiveUnits="userSpaceOnUse"><feFlood></feFlood><feComposite in2="SourceAlpha" operator="in"></feComposite><feGaussianBlur stdDeviation="1"></feGaussianBlur><feOffset dx="2" dy="2" result="afterOffset"></feOffset><feFlood flood-color="#000000" flood-opacity="0.45"></feFlood><feComposite in2="afterOffset" operator="in"></feComposite><feMorphology operator="dilate" radius="1"></feMorphology><feComposite in2="SourceAlpha" operator="out"></feComposite></filter><path d="M401.26 441.15C401.28 439.13 401.38 429.07 401.56 410.95L405.52 410.95L409.39 410.95C419.99 425.99 425.89 434.34 427.06 436.01C436.72 449.8 445.35 461.78 446.17 462.68C447.69 464.09 447.79 461.78 447.79 437.22C447.79 435.43 447.79 426.47 447.79 410.35L450.64 410.65L453.38 410.95L453.38 442.15L453.38 473.35L449.82 473.65L446.17 473.95L427.47 447.08L408.67 420.21L408.17 446.78L407.66 473.35C405.95 473.53 405 473.63 404.81 473.65C403.19 473.85 401.87 473.45 401.56 472.64C401.26 471.94 401.16 457.75 401.26 441.15Z" id="b30YiOUjud" fill="white" fill-opacity="1" filter="url(#shadow12505138)"></path></g><use xlink:href="#e1nMdv8KSP" opacity="1" fill="#fd5f00" fill-opacity="1"></use><g><use xlink:href="#e1nMdv8KSP" opacity="1" fill-opacity="0" stroke="#fd5f00" stroke-width="1" stroke-opacity="0"></use></g></g><g><g><filter id="shadow9199951" x="453.03" y="400.45" width="70.77" height="85.4" filterUnits="userSpaceOnUse" primitiveUnits="userSpaceOnUse"><feFlood></feFlood><feComposite in2="SourceAlpha" operator="in"></feComposite><feGaussianBlur stdDeviation="1"></feGaussianBlur><feOffset dx="2" dy="2" result="afterOffset"></feOffset><feFlood flood-color="#000000" flood-opacity="0.45"></feFlood><feComposite in2="afterOffset" operator="in"></feComposite><feMorphology operator="dilate" radius="1"></feMorphology><feComposite in2="SourceAlpha" operator="out"></feComposite></filter><path d="M484.37 444.47C484.37 442.6 484.37 433.28 484.37 416.49L473.7 416.49L463.03 416.49L463.03 413.47L463.03 410.45L487.42 410.45L511.8 410.45L511.8 413.47L511.8 416.49L501.14 416.49L490.47 416.49L490.47 445.17L490.47 473.85C489.06 473.85 488.29 473.85 488.13 473.85C486.81 473.85 485.39 473.55 485.08 473.15C484.68 472.85 484.37 459.86 484.37 444.47Z" id="a1VowWU2Cr" fill="white" fill-opacity="1" filter="url(#shadow9199951)"></path></g><use xlink:href="#b7LZh5EOT" opacity="1" fill="#fd5f00" fill-opacity="1"></use><g><use xlink:href="#b7LZh5EOT" opacity="1" fill-opacity="0" stroke="#fd5f00" stroke-width="1" stroke-opacity="0"></use></g></g><g><g><filter id="shadow6442176" x="511.11" y="400.95" width="62.48" height="84.9" filterUnits="userSpaceOnUse" primitiveUnits="userSpaceOnUse"><feFlood></feFlood><feComposite in2="SourceAlpha" operator="in"></feComposite><feGaussianBlur stdDeviation="1"></feGaussianBlur><feOffset dx="2" dy="2" result="afterOffset"></feOffset><feFlood flood-color="#000000" flood-opacity="0.45"></feFlood><feComposite in2="afterOffset" operator="in"></feComposite><feMorphology operator="dilate" radius="1"></feMorphology><feComposite in2="SourceAlpha" operator="out"></feComposite></filter><path d="M521.15 441.15C521.17 439.13 521.27 429.07 521.46 410.95L540.76 410.95L560.07 410.95L560.07 413.47L560.07 415.99L544.12 416.29L528.06 416.59L528.06 427.06L528.06 437.52L543.1 437.82L558.04 438.13L558.34 440.94L558.64 443.66L543.4 443.66L528.06 443.66L528.06 455.74L528.06 467.81L544.83 467.81L561.59 467.81L561.59 470.83L561.59 473.85C549.7 473.85 543.1 473.85 541.78 473.85C526.74 473.85 521.76 473.55 521.46 472.54C521.15 471.84 521.05 457.75 521.15 441.15Z" id="i1eYbqpFtb" fill="white" fill-opacity="1" filter="url(#shadow6442176)"></path></g><use xlink:href="#a5sntigyHd" opacity="1" fill="#fd5f00" fill-opacity="1"></use><g><use xlink:href="#a5sntigyHd" opacity="1" fill-opacity="0" stroke="#fd5f00" stroke-width="1" stroke-opacity="0"></use></g></g><g><g><filter id="shadow10636607" x="563.95" y="400.95" width="62.29" height="84.87" filterUnits="userSpaceOnUse" primitiveUnits="userSpaceOnUse"><feFlood></feFlood><feComposite in2="SourceAlpha" operator="in"></feComposite><feGaussianBlur stdDeviation="1"></feGaussianBlur><feOffset dx="2" dy="2" result="afterOffset"></feOffset><feFlood flood-color="#000000" flood-opacity="0.45"></feFlood><feComposite in2="afterOffset" operator="in"></feComposite><feMorphology operator="dilate" radius="1"></feMorphology><feComposite in2="SourceAlpha" operator="out"></feComposite></filter><path d="M573.99 441.15C574.01 439.13 574.11 429.07 574.29 410.95C581.61 410.95 585.67 410.95 586.49 410.95C594.51 410.95 599.9 411.46 602.23 412.36C610.16 415.48 614.22 422.53 612.9 430.78C611.99 435.81 606.7 441.35 601.73 442.25C599.8 442.55 598.17 443.26 598.17 443.76C598.17 444.16 602.03 450.91 606.81 458.76C613.31 469.42 615.04 473.05 613.92 473.45C610.36 474.86 608.53 472.85 599.8 458.46C599.19 457.47 596.18 452.54 590.75 443.66L585.88 443.66L581 443.66L580.69 458.56L580.39 473.35C578.68 473.53 577.73 473.63 577.54 473.65C575.92 473.85 574.6 473.45 574.29 472.64C573.99 471.94 573.89 457.75 573.99 441.15ZM605.89 423.13C603.86 418.2 599.49 416.49 589.03 416.49C588.48 416.49 585.77 416.49 580.9 416.49L580.9 427.16L580.9 437.82C586.93 437.58 590.29 437.45 590.96 437.42C599.9 437.12 601.32 436.82 603.66 434.7C607.01 431.59 607.82 427.66 605.89 423.13Z" id="d2NY6aeyIL" fill="white" fill-opacity="1" filter="url(#shadow10636607)"></path></g><use xlink:href="#a4cq0sOMq" opacity="1" fill="#fd5f00" fill-opacity="1"></use><g><use xlink:href="#a4cq0sOMq" opacity="1" fill-opacity="0" stroke="#fd5f00" stroke-width="1" stroke-opacity="0"></use></g></g><g><g><filter id="shadow16632455" x="162.85" y="68.54" width="316.29" height="314.79" filterUnits="userSpaceOnUse" primitiveUnits="userSpaceOnUse"><feFlood></feFlood><feComposite in2="SourceAlpha" operator="in"></feComposite><feGaussianBlur stdDeviation="1"></feGaussianBlur><feOffset dx="2" dy="2" result="afterOffset"></feOffset><feFlood flood-color="#000000" flood-opacity="0.45"></feFlood><feComposite in2="afterOffset" operator="in"></feComposite><feMorphology operator="dilate" radius="1"></feMorphology><feComposite in2="SourceAlpha" operator="out"></feComposite></filter><path d="M178.53 265.18C172.03 242.34 171.11 218.09 175.79 195.34C187.47 139.69 231.67 94.51 286.64 82.23C312.85 76.29 341.71 77.6 366.81 85.65C386.31 91.99 412.02 108.29 426.75 123.69C445.75 143.51 460.28 171.69 464.75 197.25C473.59 248.88 457.74 296.78 420.25 331.81C388.96 360.99 343.84 375.58 301.78 370.25C243.86 362.9 194.38 320.74 178.53 265.18ZM311.63 351.53C311.24 351.12 309.28 349.08 305.74 345.39C303.48 346.3 302.23 346.8 301.98 346.9C293.95 350.22 282.78 345.79 279.53 337.94C279.42 337.68 278.88 336.33 277.9 333.92C274.55 334.28 272.68 334.48 272.31 334.52C269.26 334.82 259.71 335.43 251.28 335.73C237.66 336.33 235.73 336.64 235.73 338.15C235.73 343.38 265.5 358.47 285.62 363.41C295.99 365.92 305.23 366.93 319.56 367.13C320.17 367.14 323.22 367.17 328.7 367.23L323.12 362.5C317.63 357.47 313.8 353.81 311.63 351.53ZM383.88 352.84C388.24 350.62 389.26 349.62 390.07 346.5C390.58 344.39 391.5 340.86 392.11 338.65C393.93 331.5 395.36 310.97 394.65 300.21C394.24 294.47 393.83 289.84 393.63 289.84C393.53 289.84 389.67 292.36 385.1 295.38C368.13 306.65 342.62 318.52 323.42 324.16C322.86 324.32 320.09 325.12 315.09 326.57C314.72 328.99 314.52 330.33 314.48 330.6C314.07 332.81 312.65 336.64 311.23 339.05C311.06 339.34 310.21 340.78 308.69 343.38C311.92 346.7 313.71 348.55 314.07 348.91C323.83 358.88 333.48 366.32 336.63 366.32C338.25 366.32 344.05 365.42 349.63 364.31C360.4 362.1 375.34 357.17 383.88 352.84ZM437.42 307.05C437.82 306.49 439.78 303.71 443.32 298.7C442.22 295.56 441.61 293.81 441.49 293.46C440.47 290.65 438.13 284.61 436.1 279.98C435.86 279.42 434.68 276.64 432.55 271.63C429.98 272.05 428.56 272.28 428.28 272.33C425.23 272.73 422.99 272.43 420.66 271.22C420.43 271.11 419.32 270.54 417.3 269.51C414.2 272.53 412.47 274.21 412.12 274.54C409.28 277.36 405.01 281.19 402.57 283C402.28 283.22 400.82 284.33 398.2 286.32C398.02 300.21 397.92 307.92 397.9 309.46C397.59 326.67 397.19 334.12 395.97 338.65C395.05 341.97 394.34 345.09 394.24 345.59C394.24 346.9 396.98 345.49 404.2 340.46C413.65 333.82 430.31 317.11 437.42 307.05ZM310.52 331.3C311.94 324.26 305.64 315.8 298.02 314.6C289.28 313.09 280.44 320.74 280.44 329.69C280.44 333.62 284.3 340.06 287.86 342.17C291.72 344.49 297.41 344.79 302.18 342.78C305.84 341.27 309.5 336.13 310.52 331.3ZM240.92 270.32C241.06 269.73 241.81 266.77 243.15 261.46C239.98 258.74 238.22 257.23 237.87 256.93C231.87 251.7 229.64 247.37 229.64 240.53C229.64 231.47 233.8 223.92 240.92 220.4C244.17 218.69 244.78 217.89 244.37 216.07C241.93 205.81 239.8 193.93 238.78 185.08C236.95 168.07 237.05 168.37 233.5 167.16C229.23 165.66 226.69 163.34 224.96 159.21C223.95 156.8 223.13 155.99 221.81 156.4C220.8 156.6 217.44 157.1 214.4 157.5C211.35 157.81 204.54 159.21 199.46 160.72C198.84 160.9 195.72 161.77 190.11 163.34C188.28 167.69 187.27 170.1 187.06 170.59C179.95 187.29 176.8 204.3 176.8 224.93C176.8 243.15 178.53 253.81 184.02 270.22C191.03 290.95 201.19 307.75 215.92 322.75C224.25 331.3 225.37 332.11 228.93 332.11C229.18 332.11 230.43 332.11 232.69 332.11L232.69 325.26C235.06 300.78 237.8 282.46 240.92 270.32ZM277.39 325.47C277.39 324.36 278.81 321.34 280.54 318.72C280.75 318.41 281.76 316.87 283.59 314.09C279.14 305.76 276.67 301.13 276.17 300.21C272.01 292.56 266.42 280.98 263.68 274.44C263.34 273.65 261.68 269.69 258.7 262.57C255.04 262.75 253.01 262.85 252.6 262.87C245.59 263.17 246.61 261.46 242.34 280.28C239.8 291.65 237.26 310.57 236.34 324.36C236.32 324.88 236.18 327.46 235.94 332.11C243.31 332.05 247.41 332.01 248.23 332.01C255.04 332.01 263.98 331.6 268.04 331.2C275.77 330.5 277.39 329.49 277.39 325.47ZM384.38 291.65C384.99 291.25 388 289.24 393.43 285.61C393 281.93 392.76 279.88 392.72 279.47C391.9 271.42 387.64 250.19 384.99 240.53C382.15 230.06 374.83 208.02 373.82 206.71C370.67 202.79 340.79 184.88 324.33 177.23C323.85 176.99 321.41 175.82 317.02 173.71C314.46 176.24 313.04 177.65 312.75 177.93C306.35 184.37 301.68 185.18 290.09 181.76C288.47 181.25 286.94 182.66 281.86 189.91C275.56 198.87 264.18 217.89 264.18 219.39C264.18 219.8 265.71 221.31 267.64 222.82C278.41 230.97 277.6 250.49 266.22 258.04C263.98 259.45 262.15 260.96 262.15 261.26C262.15 263.17 274.75 290.34 280.34 300.71C285.42 310.07 287.45 312.79 288.57 312.28C289.38 311.98 292.23 311.48 294.87 311.18C301.47 310.67 308.18 313.89 311.23 319.13C312.45 321.24 313.67 323.05 313.87 323.05C314.07 323.05 318.85 321.64 324.54 319.93C344.45 313.89 367.01 303.23 384.38 291.65ZM463.03 229.76C463.54 213.46 462.93 202.29 461.4 202.29C460.89 202.29 459.78 204.4 458.76 207.12C454.9 217.08 448.19 230.26 442.5 238.92C442.12 239.52 440.19 242.5 436.71 247.88C437.81 249.75 438.42 250.79 438.54 250.99C441.08 255.32 440.88 261.96 437.93 265.89C435.7 268.91 435.59 269.21 437.22 273.13C442.5 286.42 445.55 293.87 445.86 293.87C445.96 293.87 447.79 290.34 449.72 286.12C458.96 266.29 462.32 252 463.03 229.76ZM414.97 267.7C413.93 265.59 413.36 264.41 413.24 264.18C411 259.55 411.11 256.93 413.54 252.1C414.66 249.89 415.27 247.27 414.97 246.26C414.36 244.15 382.45 212.35 381.03 212.35C380.52 212.35 381.03 214.97 382.15 218.19C387.13 232.28 394.24 262.17 395.76 275.25C396.17 278.57 396.78 281.59 396.98 282.09C397.49 282.9 399.83 281.09 409.38 272.63C410.12 271.97 411.99 270.33 414.97 267.7ZM435.19 252.6C429.8 243.45 415.48 247.67 415.58 258.34C415.68 266.39 424.21 271.12 431.73 267.3C436.71 264.68 438.34 257.84 435.19 252.6ZM262.66 223.42C261.03 222.41 257.48 221.31 254.73 220.9C250.67 220.3 249.04 220.6 244.37 222.92C236.95 226.44 233.7 231.67 233.7 240.03C233.7 255.32 248.64 263.88 262.35 256.43C274.65 249.59 274.85 230.87 262.66 223.42ZM431.83 244.86C434.17 245.46 434.78 244.76 440.17 236.1C445.75 227.14 451.04 216.48 455.31 206.01C455.43 205.69 456.08 204.08 457.24 201.18L454.19 197.36L451.04 193.53C444.51 193.17 440.89 192.97 440.17 192.93C409.89 191.32 383.98 180.75 356.75 158.71C356.04 158.11 358.58 163.84 362.44 171.59C366.4 179.34 371.28 189.91 373.41 195.14C377.17 204.2 377.68 204.8 386.01 211.65C395.97 219.9 407.65 231.47 414.46 239.82C417.71 243.85 419.54 245.36 420.66 244.86C421.47 244.45 423.81 244.15 425.74 244.15C427.67 244.15 430.41 244.45 431.83 244.86ZM279.12 187.8C279.56 187.2 281.76 184.21 285.72 178.84C284.32 176.36 283.54 174.99 283.39 174.71C282.07 172.4 280.75 168.57 280.44 166.16C280.41 165.86 280.24 164.35 279.93 161.63C275.12 160.6 272.44 160.03 271.91 159.92C267.43 158.91 261.24 157.91 258.19 157.5C257.81 157.46 255.91 157.26 252.5 156.9C251.4 159.31 250.79 160.66 250.67 160.93C249.35 163.84 247.72 165.45 244.78 166.66C242.64 167.67 240.81 168.98 240.81 169.48C240.92 174.41 244.07 196.95 245.89 206.01C246.05 206.76 246.83 210.52 248.23 217.28C251.34 217.52 253.07 217.66 253.41 217.68C256.26 217.89 259.1 217.99 259.61 217.89C260.22 217.78 263.27 213.05 266.52 207.32C269.77 201.58 275.46 192.83 279.12 187.8ZM349.63 155.59C349.28 155.02 347.52 152.17 344.35 147.04C341.42 147.4 339.8 147.6 339.47 147.64C335.51 148.04 333.68 147.74 330.43 145.93C330.15 145.78 328.76 145 326.26 143.62C323.4 145.97 321.81 147.28 321.49 147.54C318.85 149.65 316 151.97 315.19 152.57C313.97 153.48 314.07 154.18 315.9 157.1C317.22 159.31 318.03 162.33 318.14 165.55C318.14 165.89 318.14 167.57 318.14 170.59C327.1 174.93 332.08 177.35 333.07 177.83C341.3 181.76 352.78 188.2 358.68 192.12C364.57 195.95 369.75 199.17 370.16 199.17C370.67 199.27 370.67 198.26 370.36 197.05C368.84 192.32 354.61 163.84 349.63 155.59ZM459.57 189.51C458.96 185.88 458.35 185.48 456.42 187.39C453.68 190.11 455.81 197.25 459.47 197.25C461.1 197.25 461.4 196.85 460.89 195.04C460.49 193.73 459.98 191.22 459.57 189.51ZM455.81 183.37C457.24 182.56 457.13 181.66 454.8 175.11C446.67 152.77 431.43 131.14 413.85 116.75C413.29 116.29 410.52 114.01 405.52 109.9C399.85 111.05 396.7 111.69 396.07 111.81C384.49 114.23 367.62 119.87 358.37 124.49C357.91 124.72 355.57 125.86 351.36 127.92C351.79 130.27 352.03 131.58 352.07 131.84C352.58 134.86 352.17 136.87 350.45 140.4C347.7 145.73 347.3 145.13 360.51 156.6C385.1 178.03 411.82 188.2 448.29 190.11C450.43 190.21 451.44 189.51 452.66 187.19C453.48 185.58 454.9 183.87 455.81 183.37ZM313.67 166.36C314.17 158.91 311.74 154.69 305.33 151.87C299.85 149.45 294.87 150.06 290.5 153.68C278.61 163.64 285.72 181.15 301.07 179.84C305.13 179.54 306.76 178.74 309.7 175.82C312.85 172.6 313.36 171.49 313.67 166.36ZM248.94 153.88C248.94 146.13 240.61 140.9 233.8 144.32C230.45 146.03 227.61 150.56 227.61 153.98C227.61 157.6 230.65 162.13 234.01 163.54C238.17 165.35 239.29 165.35 242.85 163.54C246.91 161.43 248.94 158.21 248.94 153.88ZM223.44 152.77C224.84 150 225.62 148.45 225.78 148.14C227.5 144.52 229.23 142.91 232.58 141.3C232.89 141.15 234.41 140.42 237.16 139.09C238.19 133.77 238.77 130.82 238.88 130.23C240.92 119.87 243.66 111.51 247.32 105.17C249.76 100.74 249.76 100.64 247.62 101.85C229.84 111.21 210.64 129.63 198.85 148.65C195.6 153.68 193.06 158.01 193.06 158.31C193.06 158.61 196.62 157.81 200.98 156.5C205.25 155.29 212.16 153.88 216.12 153.48C217.1 153.38 219.54 153.15 223.44 152.77ZM307.57 149.05C307.86 149.19 309.32 149.9 311.94 151.16C315.05 148.39 316.77 146.84 317.12 146.53C319.97 144.02 322.71 141.9 323.22 141.9C323.72 141.9 323.83 139.19 323.42 135.77C322.91 130.53 323.12 129.33 325.05 126.71C325.19 126.51 325.94 125.5 327.28 123.69C325.39 121.33 324.34 120.03 324.13 119.76C319.86 114.43 309.7 105.37 302.49 100.44C292.94 94 286.03 91.28 277.7 90.78C271.19 90.38 269.67 90.68 264.79 93C253.01 98.73 244.78 113.83 241.93 134.56C241.22 139.79 241.22 139.79 244.27 140.9C248.64 142.41 250.87 144.72 251.99 149.05C252.91 152.47 253.51 152.97 256.87 153.58C258.9 153.88 264.79 154.99 269.77 155.99C282.27 158.41 281.86 158.41 284.61 154.59C289.69 147.24 299.03 144.92 307.57 149.05ZM348.52 133.95C348.52 128.32 342.73 122.78 336.93 122.78C335.51 122.78 332.77 124.19 330.74 125.9C327.69 128.52 327.18 129.73 327.18 133.25C327.18 138.18 329.31 141.6 333.68 143.51C337.54 145.13 337.34 145.13 341.2 143.82C344.66 142.61 348.52 137.48 348.52 133.95ZM394.14 108.59C394.57 108.51 396.74 108.11 400.64 107.39C399.24 106.24 398.46 105.6 398.3 105.47C394.54 102.46 380.12 95.01 371.48 91.59C359.8 87.06 343.84 83.54 331.14 82.83C330.4 82.79 326.71 82.59 320.07 82.23C320.43 84.28 320.64 85.42 320.68 85.65C322 92.89 325.35 104.47 328.3 112.02C328.51 112.53 329.56 115.12 331.45 119.76C334.68 119.76 336.47 119.76 336.83 119.76C340.79 119.76 343.03 120.37 345.57 122.18C347.5 123.49 349.13 124.7 349.33 124.7C349.43 124.8 352.68 123.29 356.44 121.37C364.77 117.25 385.2 110.3 394.14 108.59ZM317.83 89.67C317.75 89.18 317.34 86.7 316.61 82.23C311.55 82.59 308.74 82.79 308.18 82.83C296.8 83.64 281.46 86.66 284.1 87.66C298.63 92.89 305.64 97.12 317.02 107.59C321.18 111.41 324.74 114.43 324.84 114.33C324.84 114.33 323.62 110.41 322 105.68C320.47 100.95 318.54 93.8 317.83 89.67Z" id="c27KdLZXP1" fill="white" fill-opacity="1" filter="url(#shadow16632455)"></path></g><use xlink:href="#c19rOrPGb3" opacity="1" fill="#fd5f00" fill-opacity="1"></use><g><use xlink:href="#c19rOrPGb3" opacity="1" fill-opacity="0" stroke="#fd5f00" stroke-width="1" stroke-opacity="1"></use></g></g><g><g><filter id="shadow8947615" x="228.19" y="214.94" width="50.5" height="50.2" filterUnits="userSpaceOnUse" primitiveUnits="userSpaceOnUse"><feFlood></feFlood><feComposite in2="SourceAlpha" operator="in"></feComposite><feGaussianBlur stdDeviation="1"></feGaussianBlur><feOffset dx="2" dy="2" result="afterOffset"></feOffset><feFlood flood-color="#000000" flood-opacity="0.45"></feFlood><feComposite in2="afterOffset" operator="in"></feComposite><feMorphology operator="dilate" radius="1"></feMorphology><feComposite in2="SourceAlpha" operator="out"></feComposite></filter><path d="M238.38 236.86C239.9 228.91 248.54 223.27 256.05 225.39C267.74 228.71 270.58 244.51 260.63 250.95C257.99 252.66 251.48 253.66 248.43 252.86C242.13 251.15 237.16 243.3 238.38 236.86ZM263.17 238.37C263.17 233.74 257.48 228.4 252.5 228.4C247.52 228.4 241.83 233.74 241.83 238.37C241.83 242.19 244.17 247.02 246.61 248.43C248.94 249.84 255.65 249.84 258.19 248.53C260.73 247.12 263.17 242.29 263.17 238.37Z" id="a4gx6SX7TL" fill="white" fill-opacity="1" filter="url(#shadow8947615)"></path></g><use xlink:href="#b3cqM3ldK" opacity="1" fill="#fd5f00" fill-opacity="1"></use><g><use xlink:href="#b3cqM3ldK" opacity="1" fill-opacity="0" stroke="#000000" stroke-width="1" stroke-opacity="0"></use></g></g></g></g></svg>