<?xml version="1.0" encoding="UTF-8" standalone="no"?>
<!DOCTYPE svg PUBLIC "-//W3C//DTD SVG 1.1//EN" "http://www.w3.org/Graphics/SVG/1.1/DTD/svg11.dtd">
<svg version="1.1" xmlns="http://www.w3.org/2000/svg" xmlns:xlink="http://www.w3.org/1999/xlink" preserveAspectRatio="xMidYMid meet" viewBox="0 0 640 640" width="60" height="60"><defs><path d="M19.78 28.77C21.65 29.29 22.1 31.79 20.51 32.81C20.09 33.08 19.05 33.24 18.56 33.11C17.56 32.84 16.76 31.6 16.96 30.58C17.2 29.32 18.58 28.43 19.78 28.77ZM19.21 29.24C18.42 29.24 17.51 30.09 17.51 30.82C17.51 31.43 17.88 32.19 18.27 32.41C18.65 32.64 19.72 32.64 20.12 32.43C20.53 32.21 20.92 31.44 20.92 30.82C20.92 30.09 20.01 29.24 19.21 29.24Z" id="b23bAIYPCH"></path><path d="M19.78 28.77C21.65 29.29 22.1 31.79 20.51 32.81C20.09 33.08 19.05 33.24 18.56 33.11C17.56 32.84 16.76 31.6 16.96 30.58C17.2 29.32 18.58 28.43 19.78 28.77ZM19.21 29.24C18.42 29.24 17.51 30.09 17.51 30.82C17.51 31.43 17.88 32.19 18.27 32.41C18.65 32.64 19.72 32.64 20.12 32.43C20.53 32.21 20.92 31.44 20.92 30.82C20.92 30.09 20.01 29.24 19.21 29.24Z" id="b6jw4fX0h"></path><path d="M18.07 251.03C42.79 135.58 136.28 41.83 252.57 16.36C308.04 4.04 369.07 6.75 422.17 23.45C463.45 36.61 517.83 70.44 549 102.37C589.2 143.51 619.93 201.97 629.38 255C648.09 362.11 614.55 461.48 535.23 534.15C469.03 594.69 373.59 624.97 284.61 613.9C162.08 598.66 57.4 511.17 23.86 395.93C10.11 348.54 8.17 298.22 18.07 251.03ZM292.98 562.33C288.22 564.21 285.56 565.25 285.04 565.46C268.05 572.35 244.41 563.17 237.53 546.88C237.29 546.33 236.15 543.54 234.09 538.52C226.99 539.28 223.06 539.7 222.26 539.78C215.82 540.4 195.62 541.66 177.77 542.28C148.96 543.54 144.88 544.17 144.88 547.3C144.88 558.15 207.87 589.48 250.43 599.7C272.36 604.92 291.92 607.01 322.22 607.42C323.51 607.44 329.96 607.51 341.57 607.63C340.39 606.65 330.93 598.8 329.74 597.82C318.14 587.39 310.04 579.8 305.46 575.07C304.62 574.22 300.47 569.97 292.98 562.33ZM471.4 564.62C472.47 560.24 474.41 552.93 475.7 548.34C479.57 533.52 482.57 490.92 481.07 468.59C480.22 456.69 479.35 447.08 478.93 447.08C478.7 447.08 470.54 452.3 460.87 458.56C424.97 481.95 371.01 506.59 330.39 518.28C329.21 518.61 323.34 520.28 312.77 523.29C311.98 528.3 311.56 531.09 311.48 531.64C310.62 536.24 307.6 544.17 304.6 549.18C304.24 549.77 302.44 552.77 299.23 558.15C306.05 565.04 309.85 568.87 310.62 569.64C331.25 590.31 351.67 605.75 358.33 605.75C361.78 605.75 374.03 603.88 385.84 601.59C408.63 596.99 440.23 586.76 458.29 577.77C467.53 573.19 469.68 571.1 471.4 564.62ZM584.03 465.45C581.71 458.94 580.42 455.32 580.16 454.6C578.01 448.75 573.08 436.22 568.77 426.62C568.27 425.47 565.77 419.69 561.25 409.29C555.84 410.16 552.82 410.65 552.22 410.75C545.77 411.59 541.04 410.96 536.1 408.45C535.63 408.22 533.26 407.04 529 404.9C522.43 411.17 518.78 414.65 518.04 415.35C512.03 421.19 502.99 429.13 497.84 432.88C497.22 433.35 494.14 435.64 488.59 439.77C488.21 468.59 488 484.59 487.95 487.79C487.3 523.5 486.45 538.94 483.86 548.34C481.93 555.23 480.43 561.71 480.22 562.75C480.22 565.46 486.01 562.54 501.28 552.09C521.27 538.31 556.52 503.66 571.56 482.79C572.39 481.63 576.55 475.85 584.03 465.45ZM276.65 498.44C258.17 495.31 239.47 511.17 239.47 529.76C239.47 537.9 247.63 551.26 255.15 555.65C263.32 560.45 275.36 561.08 285.46 556.9C293.21 553.77 300.94 543.12 303.09 533.1C306.1 518.49 292.77 500.94 276.65 498.44ZM160.58 388.21C153.87 382.56 150.14 379.43 149.4 378.8C136.72 367.95 131.99 358.97 131.99 344.78C131.99 325.98 140.8 310.33 155.85 303.02C162.73 299.46 164.02 297.8 163.15 294.04C158 272.74 153.48 248.1 151.34 229.74C147.46 194.45 147.67 195.07 140.15 192.57C131.13 189.44 125.76 184.64 122.09 176.08C119.95 171.07 118.24 169.39 115.44 170.23C113.28 170.65 106.2 171.69 99.74 172.53C93.3 173.16 78.89 176.08 68.14 179.2C66.83 179.57 60.24 181.38 48.37 184.64C44.5 193.66 42.35 198.66 41.92 199.67C26.88 234.32 20.21 269.62 20.21 312.41C20.21 350.21 23.86 372.34 35.48 406.36C50.31 449.38 71.81 484.25 102.97 515.35C120.59 533.1 122.96 534.77 130.48 534.77C131.02 534.77 133.66 534.77 138.44 534.77C138.44 533.35 138.44 522 138.44 520.58C143.45 469.77 149.25 431.77 155.85 406.57C156.16 405.35 157.74 399.23 160.58 388.21ZM239.68 507C240.11 506.36 242.26 503.16 246.13 497.4C236.71 480.11 231.49 470.51 230.43 468.59C221.62 452.72 209.8 428.71 204 415.14C203.3 413.49 199.79 405.28 193.46 390.5C185.73 390.87 181.43 391.08 180.56 391.13C165.73 391.75 167.88 388.21 158.86 427.25C153.48 450.84 148.11 490.09 146.17 518.69C146.12 519.76 145.82 525.12 145.32 534.77C160.92 534.65 169.59 534.58 171.33 534.56C185.73 534.56 204.64 533.73 213.24 532.89C229.57 531.43 233.01 529.34 233.01 520.99C233.01 518.69 236.03 512.43 239.68 507ZM478.49 438.31C477.58 430.67 477.09 426.42 476.99 425.58C475.26 408.87 466.24 364.83 460.66 344.78C454.64 323.07 439.16 277.34 437 274.62C430.35 266.48 367.15 229.32 332.33 213.45C331.3 212.96 326.13 210.53 316.85 206.14C311.43 211.4 308.42 214.32 307.81 214.91C294.27 228.28 284.39 229.95 259.88 222.84C256.44 221.8 253.22 224.72 242.47 239.76C229.14 258.34 205.08 297.8 205.08 300.93C205.08 301.76 208.3 304.9 212.39 308.03C235.16 324.95 233.45 365.44 209.37 381.1C204.64 384.03 200.77 387.16 200.77 387.79C200.77 391.75 227.43 448.12 239.26 469.63C249.99 489.04 254.3 494.69 256.66 493.64C258.38 493.01 264.4 491.97 269.99 491.34C283.96 490.3 298.15 496.99 304.6 507.84C307.17 512.22 309.75 515.98 310.18 515.98C310.62 515.98 320.72 513.05 332.75 509.51C374.88 496.99 422.6 474.85 459.37 450.84C460.63 450 467.01 445.82 478.49 438.31ZM622.3 265.44C621.22 265.44 618.86 269.83 616.7 275.46C608.53 296.13 594.35 323.48 582.31 341.43C581.5 342.67 577.41 348.87 570.06 360.02C572.38 363.9 573.67 366.05 573.93 366.48C579.31 375.47 578.87 389.25 572.64 397.39C567.91 403.66 567.7 404.29 571.14 412.42C582.31 439.98 588.76 455.44 589.41 455.44C589.62 455.44 593.49 448.12 597.57 439.36C617.13 398.22 624.23 368.57 625.74 322.44C626.8 288.61 625.52 265.44 622.3 265.44ZM520.4 393.84C515.67 384.24 515.9 378.8 521.05 368.78C523.42 364.2 524.71 358.76 524.06 356.68C522.77 352.29 455.28 286.31 452.27 286.31C451.19 286.31 452.27 291.74 454.64 298.42C465.16 327.65 480.22 389.67 483.43 416.81C484.3 423.7 485.59 429.96 486.01 431.01C487.09 432.67 492.03 428.92 512.24 411.38C513.81 410.01 517.76 406.61 524.06 401.15C521.87 396.76 520.65 394.33 520.4 393.84ZM525.35 381.73C525.57 398.43 543.62 408.24 559.52 400.31C570.06 394.88 573.5 380.68 566.83 369.83C555.44 350.84 525.13 359.6 525.35 381.73ZM185.08 304.06C176.48 302.81 173.04 303.43 163.15 308.24C147.46 315.54 140.59 326.4 140.59 343.73C140.59 375.47 172.19 393.21 201.2 377.77C227.22 363.57 227.64 324.74 201.85 309.29C198.41 307.2 190.89 304.9 185.08 304.06ZM577.37 335.59C589.2 317.01 600.37 294.88 609.4 273.16C609.68 272.49 611.03 269.15 613.49 263.14C613.06 262.61 610.9 259.97 607.03 255.21C603.03 250.45 600.81 247.8 600.37 247.27C586.57 246.52 578.91 246.1 577.37 246.01C513.32 242.68 458.5 220.75 400.9 175.04C399.4 173.78 404.76 185.68 412.94 201.76C421.31 217.84 431.63 239.76 436.14 250.61C444.1 269.41 445.18 270.66 462.8 284.86C483.86 301.97 508.59 325.98 522.98 343.31C529.86 351.66 533.73 354.79 536.1 353.75C537.82 352.91 542.77 352.29 546.85 352.29C550.93 352.29 556.73 352.91 559.75 353.75C564.69 355 565.98 353.54 577.37 335.59ZM250.64 216.79C247.67 211.66 246.03 208.8 245.7 208.23C242.9 203.43 240.11 195.49 239.47 190.49C239.39 189.86 239.03 186.73 238.39 181.08C228.2 178.96 222.54 177.78 221.41 177.54C211.95 175.45 198.83 173.36 192.39 172.53C191.58 172.44 187.58 172.02 180.35 171.27C178.03 176.29 176.74 179.07 176.48 179.62C173.69 185.68 170.25 189.03 164.02 191.53C159.5 193.61 155.63 196.33 155.63 197.37C155.85 207.6 162.51 254.37 166.38 273.16C166.71 274.72 168.36 282.51 171.33 296.55C177.91 297.04 181.56 297.33 182.29 297.39C188.31 297.8 194.33 298.01 195.39 297.8C196.69 297.6 203.14 287.77 210.01 275.87C216.89 263.97 228.93 245.81 236.67 235.37C237.6 234.13 242.26 227.94 250.64 216.79ZM374.67 150.82C368.48 151.57 365.04 151.99 364.35 152.07C355.97 152.9 352.1 152.27 345.22 148.52C344.64 148.2 341.7 146.6 336.41 143.71C330.34 148.61 326.98 151.31 326.31 151.86C320.72 156.24 314.7 161.05 312.98 162.3C310.4 164.18 310.62 165.63 314.48 171.69C317.27 176.29 319 182.55 319.21 189.23C319.21 189.92 319.21 193.4 319.21 199.67C338.17 208.69 348.71 213.7 350.81 214.71C368.22 222.84 392.51 236.21 404.98 244.36C417.44 252.28 428.41 258.96 429.27 258.96C430.35 259.17 430.35 257.09 429.7 254.58C426.48 244.77 396.38 185.68 385.84 168.56C385.1 167.38 381.37 161.46 374.67 150.82ZM611.76 234.53C605.95 240.18 610.47 255 618.21 255C621.65 255 622.3 254.17 621.22 250.4C620.36 247.69 619.28 242.47 618.43 238.92C617.13 231.41 615.84 230.58 611.76 234.53ZM608.32 209.06C591.12 162.72 558.89 117.83 521.69 87.97C520.53 87.02 514.64 82.29 504.07 73.77C492.08 76.15 485.42 77.48 484.08 77.74C459.58 82.75 423.89 94.44 404.33 104.05C403.34 104.52 398.4 106.88 389.5 111.15C390.41 116.03 390.91 118.75 391.01 119.29C392.08 125.55 391.22 129.72 387.57 137.04C381.76 148.1 380.9 146.85 408.85 170.65C460.87 215.12 517.4 236.21 594.57 240.18C599.08 240.38 601.22 238.92 603.81 234.12C605.53 230.78 608.53 227.23 610.47 226.19C613.49 224.51 613.26 222.63 608.32 209.06ZM292.13 160.84C280.52 155.82 269.99 157.08 260.74 164.6C235.59 185.26 250.64 221.59 283.1 218.87C291.69 218.26 295.14 216.59 301.37 210.53C308.04 203.85 309.1 201.55 309.75 190.91C310.83 175.45 305.67 166.68 292.13 160.84ZM140.8 145.18C133.71 148.73 127.69 158.12 127.69 165.23C127.69 172.74 134.13 182.13 141.23 185.05C150.04 188.82 152.4 188.82 159.94 185.05C168.52 180.67 172.83 173.99 172.83 165.02C172.83 148.94 155.21 138.08 140.8 145.18ZM123.82 153.11C127.47 145.59 131.13 142.25 138.22 138.91C138.86 138.61 142.09 137.08 147.9 134.32C150.08 123.3 151.31 117.17 151.55 115.94C155.85 94.44 161.65 77.11 169.39 63.96C174.54 54.78 174.54 54.57 170.04 57.07C132.42 76.48 91.79 114.69 66.85 154.15C59.98 164.6 54.6 173.57 54.6 174.2C54.6 174.83 62.12 173.16 71.37 170.44C80.39 167.93 95.01 165.02 103.4 164.18C105.46 163.98 110.63 163.49 118.88 162.72C121.85 156.95 123.48 153.76 123.82 153.11ZM306.1 159.38C312.68 153.61 316.33 150.41 317.06 149.77C323.08 144.55 328.89 140.16 329.96 140.16C331.03 140.16 331.25 134.53 330.39 127.43C329.31 116.57 329.74 114.06 333.83 108.64C334.14 108.22 335.71 106.13 338.56 102.37C334.56 97.49 332.34 94.78 331.89 94.24C322.87 83.17 301.37 64.38 286.11 54.15C265.9 40.79 251.28 35.14 233.66 34.1C219.91 33.26 216.68 33.89 206.37 38.7C181.43 50.6 164.02 81.92 158 124.93C156.5 135.79 156.5 135.79 162.94 138.08C172.19 141.21 176.91 146.01 179.27 154.99C181.21 162.09 182.5 163.14 189.6 164.39C193.89 165.02 206.37 167.3 216.89 169.39C243.34 174.41 242.47 174.41 248.28 166.47C259.03 151.24 278.8 146.43 296.85 154.99C297.48 155.28 300.55 156.74 306.1 159.38ZM358.97 100.49C355.97 100.49 350.16 103.42 345.87 106.97C339.41 112.39 338.35 114.9 338.35 122.21C338.35 132.44 342.85 139.53 352.1 143.51C360.26 146.85 359.84 146.85 368.01 144.13C375.32 141.62 383.48 130.98 383.48 123.68C383.48 111.99 371.23 100.49 358.97 100.49ZM493.76 68.56C490.79 66.17 489.14 64.86 488.8 64.59C480.86 58.33 450.33 42.88 432.06 35.77C407.34 26.38 373.59 19.08 346.72 17.61C345.16 17.53 337.35 17.11 323.29 16.36C324.07 20.61 324.49 22.99 324.58 23.45C327.37 38.49 334.47 62.5 340.7 78.16C341.15 79.23 343.37 84.59 347.37 94.24C354.21 94.24 358 94.24 358.76 94.24C367.15 94.24 371.88 95.49 377.25 99.24C381.34 101.96 384.77 104.46 385.2 104.46C385.42 104.67 392.3 101.54 400.25 97.58C417.88 89.01 461.08 74.6 479.99 71.06C480.91 70.89 485.5 70.06 493.76 68.56ZM315.99 16.36C305.28 17.11 299.34 17.53 298.15 17.61C274.07 19.27 241.61 25.54 247.2 27.63C277.94 38.49 292.77 47.25 316.85 68.97C325.66 76.9 333.18 83.17 333.39 82.96C333.39 82.96 330.82 74.81 327.37 65C324.16 55.19 320.08 40.37 318.56 31.81C318.4 30.78 317.53 25.63 315.99 16.36Z" id="f4druPnua"></path><path d="M112.51 104.96C114.38 96.15 121.44 89 130.22 87.06C134.41 86.12 139.02 86.33 143.03 87.6C146.15 88.6 150.26 91.18 152.62 93.62C155.65 96.76 157.97 101.22 158.69 105.26C160.1 113.43 157.57 121.01 151.58 126.55C146.57 131.17 139.37 133.48 132.64 132.63C123.39 131.47 115.48 124.8 112.95 116.01C111.91 112.39 111.76 108.56 112.51 104.96ZM133.28 128.7C132.92 128.84 132.72 128.92 132.68 128.94C131.39 129.46 129.61 128.76 129.09 127.52C129.07 127.48 128.98 127.27 128.83 126.88C128.29 126.94 127.99 126.97 127.93 126.98C127.45 127.03 125.92 127.12 124.57 127.17C122.4 127.27 122.09 127.31 122.09 127.55C122.09 128.38 126.85 130.77 130.06 131.55C131.72 131.95 133.2 132.11 135.49 132.14C135.58 132.14 136.07 132.14 136.95 132.15C136.86 132.08 136.14 131.48 136.05 131.41C135.18 130.61 134.56 130.03 134.22 129.67C134.16 129.61 133.84 129.28 133.28 128.7ZM146.75 128.87C146.83 128.54 146.98 127.98 147.08 127.63C147.37 126.5 147.6 123.25 147.48 121.55C147.42 120.64 147.35 119.91 147.32 119.91C147.31 119.91 146.69 120.31 145.96 120.78C143.25 122.57 139.17 124.45 136.1 125.34C136.01 125.36 135.57 125.49 134.77 125.72C134.71 126.1 134.68 126.32 134.67 126.36C134.61 126.71 134.38 127.31 134.15 127.7C134.13 127.74 133.99 127.97 133.75 128.38C134.26 128.9 134.55 129.2 134.61 129.26C136.17 130.83 137.71 132.01 138.21 132.01C138.47 132.01 139.4 131.87 140.29 131.69C142.01 131.34 144.4 130.56 145.76 129.88C146.46 129.53 146.62 129.37 146.75 128.87ZM155.26 121.31C155.09 120.81 154.99 120.54 154.97 120.48C154.81 120.04 154.43 119.08 154.11 118.35C154.07 118.26 153.88 117.82 153.54 117.03C153.13 117.09 152.9 117.13 152.86 117.14C152.37 117.2 152.01 117.15 151.64 116.96C151.61 116.95 151.43 116.86 151.1 116.69C150.61 117.17 150.33 117.44 150.28 117.49C149.82 117.93 149.14 118.54 148.75 118.83C148.7 118.86 148.47 119.04 148.05 119.35C148.02 121.55 148.01 122.77 148 123.01C147.95 125.74 147.89 126.91 147.7 127.63C147.55 128.16 147.44 128.65 147.42 128.73C147.42 128.94 147.86 128.71 149.01 127.92C150.52 126.87 153.18 124.22 154.32 122.63C154.38 122.54 154.7 122.1 155.26 121.31ZM132.04 123.83C130.65 123.59 129.23 124.8 129.23 126.21C129.23 126.83 129.85 127.85 130.42 128.19C131.04 128.56 131.95 128.6 132.71 128.28C133.29 128.05 133.88 127.23 134.04 126.47C134.27 125.35 133.26 124.02 132.04 123.83ZM123.28 115.42C122.77 114.99 122.49 114.75 122.43 114.7C121.47 113.87 121.12 113.19 121.12 112.11C121.12 110.67 121.78 109.48 122.92 108.92C123.44 108.65 123.53 108.52 123.47 108.24C123.08 106.61 122.74 104.73 122.58 103.33C122.28 100.64 122.3 100.69 121.73 100.5C121.05 100.26 120.64 99.89 120.37 99.24C120.21 98.86 120.08 98.73 119.87 98.8C119.7 98.83 119.17 98.91 118.68 98.97C118.19 99.02 117.1 99.24 116.29 99.48C116.19 99.51 115.7 99.65 114.8 99.89C114.51 100.58 114.34 100.96 114.31 101.04C113.18 103.68 112.67 106.37 112.67 109.64C112.67 112.52 112.95 114.21 113.83 116.8C114.95 120.08 116.57 122.74 118.92 125.12C120.25 126.47 120.43 126.6 121 126.6C121.04 126.6 121.24 126.6 121.6 126.6C121.6 126.49 121.6 125.62 121.6 125.51C121.98 121.64 122.42 118.74 122.92 116.82C122.94 116.73 123.06 116.26 123.28 115.42ZM129.25 124.48C129.28 124.43 129.44 124.19 129.74 123.75C129.03 122.43 128.63 121.7 128.55 121.55C127.89 120.34 126.99 118.51 126.55 117.47C126.5 117.35 126.24 116.72 125.76 115.59C125.17 115.62 124.85 115.64 124.78 115.64C123.66 115.69 123.83 115.42 123.14 118.4C122.74 120.2 122.33 123.19 122.19 125.37C122.18 125.45 122.16 125.86 122.12 126.6C123.3 126.59 123.96 126.58 124.09 126.58C125.17 126.58 126.6 126.52 127.25 126.45C128.49 126.34 128.75 126.18 128.75 125.55C128.75 125.37 128.97 124.89 129.25 124.48ZM147.29 119.24C147.22 118.66 147.18 118.33 147.18 118.27C147.05 116.99 146.36 113.64 145.94 112.11C145.49 110.45 144.32 106.96 144.16 106.76C143.65 106.14 138.88 103.3 136.25 102.09C136.17 102.05 135.78 101.87 135.08 101.53C134.67 101.93 134.44 102.16 134.4 102.2C133.37 103.22 132.63 103.35 130.78 102.81C130.52 102.73 130.27 102.95 129.46 104.1C128.45 105.52 126.64 108.52 126.64 108.76C126.64 108.83 126.88 109.07 127.19 109.3C128.91 110.59 128.78 113.68 126.96 114.88C126.6 115.1 126.31 115.34 126.31 115.39C126.31 115.69 128.32 119.99 129.22 121.63C130.03 123.11 130.35 123.54 130.53 123.46C130.66 123.41 131.12 123.33 131.54 123.28C132.59 123.2 133.67 123.71 134.15 124.54C134.35 124.88 134.54 125.16 134.58 125.16C134.61 125.16 135.37 124.94 136.28 124.67C139.46 123.71 143.07 122.03 145.84 120.2C145.94 120.13 146.42 119.81 147.29 119.24ZM158.15 106.06C158.07 106.06 157.89 106.39 157.73 106.82C157.11 108.4 156.04 110.48 155.13 111.85C155.07 111.95 154.76 112.42 154.21 113.27C154.38 113.57 154.48 113.73 154.5 113.76C154.9 114.45 154.87 115.5 154.4 116.12C154.04 116.6 154.03 116.65 154.29 117.27C155.13 119.37 155.62 120.55 155.67 120.55C155.68 120.55 155.98 119.99 156.28 119.32C157.76 116.18 158.3 113.92 158.41 110.4C158.49 107.82 158.4 106.06 158.15 106.06ZM150.46 115.85C150.1 115.12 150.11 114.7 150.5 113.94C150.68 113.59 150.78 113.17 150.73 113.01C150.63 112.68 145.54 107.65 145.31 107.65C145.23 107.65 145.31 108.06 145.49 108.57C146.28 110.8 147.42 115.53 147.66 117.6C147.73 118.13 147.83 118.6 147.86 118.68C147.94 118.81 148.31 118.52 149.84 117.19C149.96 117.08 150.26 116.82 150.73 116.41C150.57 116.07 150.47 115.89 150.46 115.85ZM150.83 114.92C150.85 116.2 152.21 116.95 153.41 116.34C154.21 115.93 154.47 114.85 153.96 114.02C153.1 112.57 150.81 113.24 150.83 114.92ZM125.13 109C124.48 108.91 124.22 108.95 123.47 109.32C122.28 109.88 121.76 110.71 121.76 112.03C121.76 114.45 124.15 115.8 126.34 114.62C128.31 113.54 128.34 110.58 126.39 109.4C126.13 109.24 125.56 109.07 125.13 109ZM154.76 111.41C155.65 109.99 156.5 108.3 157.18 106.64C157.2 106.59 157.3 106.34 157.49 105.88C157.45 105.84 157.29 105.64 157 105.28C156.7 104.91 156.53 104.71 156.5 104.67C155.45 104.61 154.87 104.58 154.76 104.57C149.92 104.32 145.78 102.65 141.43 99.16C141.31 99.07 141.72 99.97 142.34 101.2C142.97 102.43 143.75 104.1 144.09 104.93C144.69 106.36 144.77 106.45 146.1 107.54C147.7 108.84 149.56 110.67 150.65 112C151.17 112.63 151.46 112.87 151.64 112.79C151.77 112.73 152.14 112.68 152.45 112.68C152.76 112.68 153.2 112.73 153.43 112.79C153.8 112.89 153.9 112.78 154.76 111.41ZM130.08 102.35C129.85 101.95 129.73 101.74 129.7 101.69C129.49 101.33 129.28 100.72 129.23 100.34C129.23 100.29 129.2 100.05 129.15 99.62C128.38 99.46 127.96 99.37 127.87 99.35C127.16 99.19 126.16 99.03 125.68 98.97C125.62 98.96 125.31 98.93 124.77 98.87C124.59 99.26 124.5 99.47 124.48 99.51C124.27 99.97 124.01 100.23 123.53 100.42C123.19 100.58 122.9 100.79 122.9 100.87C122.92 101.65 123.42 105.21 123.71 106.64C123.74 106.76 123.86 107.36 124.09 108.43C124.58 108.47 124.86 108.49 124.91 108.49C125.37 108.52 125.82 108.54 125.9 108.52C126 108.51 126.49 107.76 127.01 106.85C127.53 105.94 128.44 104.56 129.02 103.76C129.09 103.67 129.44 103.2 130.08 102.35ZM139.45 97.31C138.98 97.37 138.72 97.4 138.67 97.41C138.03 97.47 137.74 97.43 137.22 97.14C137.18 97.12 136.96 96.99 136.56 96.77C136.1 97.15 135.84 97.35 135.79 97.39C135.37 97.73 134.92 98.09 134.79 98.19C134.59 98.33 134.61 98.44 134.9 98.91C135.11 99.26 135.24 99.73 135.26 100.24C135.26 100.3 135.26 100.56 135.26 101.04C136.69 101.73 137.49 102.11 137.64 102.19C138.96 102.81 140.79 103.83 141.74 104.45C142.68 105.05 143.51 105.56 143.57 105.56C143.65 105.58 143.65 105.42 143.6 105.23C143.36 104.48 141.09 99.97 140.29 98.67C140.23 98.58 139.95 98.13 139.45 97.31ZM157.36 103.7C156.92 104.13 157.26 105.26 157.84 105.26C158.1 105.26 158.15 105.2 158.07 104.91C158.01 104.7 157.92 104.3 157.86 104.03C157.76 103.46 157.66 103.4 157.36 103.7ZM157.1 101.76C155.8 98.22 153.36 94.8 150.55 92.52C150.46 92.45 150.02 92.09 149.22 91.44C148.32 91.62 147.81 91.72 147.71 91.74C145.86 92.12 143.17 93.02 141.69 93.75C141.61 93.78 141.24 93.96 140.57 94.29C140.64 94.66 140.67 94.87 140.68 94.91C140.76 95.39 140.7 95.71 140.42 96.26C139.98 97.11 139.92 97.01 142.03 98.83C145.96 102.22 150.23 103.83 156.06 104.13C156.4 104.15 156.56 104.03 156.76 103.67C156.89 103.41 157.11 103.14 157.26 103.06C157.49 102.94 157.47 102.79 157.1 101.76ZM133.21 98.08C132.34 97.7 131.54 97.79 130.84 98.37C128.94 99.94 130.08 102.71 132.53 102.5C133.18 102.46 133.44 102.33 133.91 101.87C134.41 101.36 134.49 101.18 134.54 100.37C134.62 99.19 134.23 98.52 133.21 98.08ZM121.78 96.88C121.25 97.16 120.79 97.87 120.79 98.41C120.79 98.99 121.28 99.7 121.81 99.93C122.48 100.21 122.66 100.21 123.23 99.93C123.88 99.59 124.2 99.08 124.2 98.4C124.2 97.17 122.87 96.34 121.78 96.88ZM120.5 97.49C120.77 96.92 121.05 96.66 121.59 96.41C121.63 96.38 121.88 96.27 122.32 96.06C122.48 95.22 122.57 94.75 122.59 94.66C122.92 93.02 123.36 91.69 123.94 90.69C124.33 89.99 124.33 89.97 123.99 90.17C121.15 91.65 118.08 94.56 116.2 97.57C115.68 98.37 115.27 99.05 115.27 99.1C115.27 99.15 115.84 99.02 116.54 98.81C117.22 98.62 118.32 98.4 118.96 98.33C119.11 98.32 119.5 98.28 120.13 98.22C120.35 97.78 120.47 97.54 120.5 97.49ZM134.27 97.97C134.76 97.53 135.04 97.28 135.1 97.24C135.55 96.84 135.99 96.5 136.07 96.5C136.15 96.5 136.17 96.07 136.1 95.53C136.02 94.7 136.05 94.51 136.36 94.1C136.39 94.07 136.5 93.91 136.72 93.62C136.42 93.25 136.25 93.04 136.22 93C135.53 92.16 133.91 90.72 132.76 89.94C131.23 88.92 130.13 88.49 128.8 88.41C127.76 88.35 127.51 88.4 126.73 88.76C124.85 89.67 123.53 92.06 123.08 95.34C122.97 96.17 122.97 96.17 123.45 96.34C124.15 96.58 124.51 96.95 124.69 97.63C124.83 98.17 124.93 98.25 125.47 98.35C125.79 98.4 126.73 98.57 127.53 98.73C129.53 99.11 129.46 99.11 129.9 98.51C130.71 97.35 132.2 96.98 133.57 97.63C133.62 97.66 133.85 97.77 134.27 97.97ZM138.26 93.48C138.03 93.48 137.6 93.7 137.27 93.97C136.78 94.38 136.7 94.58 136.7 95.13C136.7 95.91 137.04 96.45 137.74 96.76C138.36 97.01 138.33 97.01 138.94 96.8C139.5 96.61 140.11 95.8 140.11 95.24C140.11 94.35 139.19 93.48 138.26 93.48ZM148.44 91.04C148.22 90.86 148.09 90.76 148.07 90.74C147.47 90.26 145.16 89.08 143.78 88.54C141.91 87.82 139.37 87.27 137.34 87.16C137.22 87.15 136.63 87.12 135.57 87.06C135.62 87.38 135.66 87.57 135.66 87.6C135.87 88.75 136.41 90.58 136.88 91.77C136.91 91.85 137.08 92.26 137.38 93C137.9 93 138.19 93 138.25 93C138.88 93 139.24 93.1 139.64 93.38C139.95 93.59 140.21 93.78 140.24 93.78C140.26 93.8 140.78 93.56 141.38 93.25C142.71 92.6 145.97 91.5 147.4 91.23C147.47 91.22 147.82 91.16 148.44 91.04ZM135.01 87.06C134.21 87.12 133.76 87.15 133.67 87.16C131.85 87.28 129.4 87.76 129.82 87.92C132.14 88.75 133.26 89.42 135.08 91.07C135.74 91.68 136.31 92.16 136.33 92.14C136.33 92.14 136.13 91.52 135.87 90.77C135.63 90.02 135.32 88.89 135.21 88.24C135.2 88.16 135.13 87.77 135.01 87.06Z" id="a37DnGGpts"></path><path d="M19.78 28.77C21.65 29.29 22.1 31.79 20.51 32.81C20.09 33.08 19.05 33.24 18.56 33.11C17.56 32.84 16.76 31.6 16.96 30.58C17.2 29.32 18.58 28.43 19.78 28.77ZM19.21 29.24C18.42 29.24 17.51 30.09 17.51 30.82C17.51 31.43 17.88 32.19 18.27 32.41C18.65 32.64 19.72 32.64 20.12 32.43C20.53 32.21 20.92 31.44 20.92 30.82C20.92 30.09 20.01 29.24 19.21 29.24Z" id="hpX2ByR4t"></path><path d="M19.78 28.77C21.65 29.29 22.1 31.79 20.51 32.81C20.09 33.08 19.05 33.24 18.56 33.11C17.56 32.84 16.76 31.6 16.96 30.58C17.2 29.32 18.58 28.43 19.78 28.77ZM19.21 29.24C18.42 29.24 17.51 30.09 17.51 30.82C17.51 31.43 17.88 32.19 18.27 32.41C18.65 32.64 19.72 32.64 20.12 32.43C20.53 32.21 20.92 31.44 20.92 30.82C20.92 30.09 20.01 29.24 19.21 29.24Z" id="h1nuuliej"></path></defs><g><g><g><use xlink:href="#b23bAIYPCH" opacity="1" fill="#ffffff" fill-opacity="1"></use><g><use xlink:href="#b23bAIYPCH" opacity="1" fill-opacity="0" stroke="#000000" stroke-width="1" stroke-opacity="0"></use></g></g><g><use xlink:href="#b6jw4fX0h" opacity="1" fill="#000000" fill-opacity="0"></use><g><use xlink:href="#b6jw4fX0h" opacity="1" fill-opacity="0" stroke="#000000" stroke-width="1" stroke-opacity="0"></use></g></g><g><g><filter id="shadow4265176" x="-2.14" y="-5.29" width="656.58" height="641.44" filterUnits="userSpaceOnUse" primitiveUnits="userSpaceOnUse"><feFlood></feFlood><feComposite in2="SourceAlpha" operator="in"></feComposite><feGaussianBlur stdDeviation="1"></feGaussianBlur><feOffset dx="6" dy="6" result="afterOffset"></feOffset><feFlood flood-color="#000000" flood-opacity="0.5"></feFlood><feComposite in2="afterOffset" operator="in"></feComposite><feMorphology operator="dilate" radius="1"></feMorphology><feComposite in2="SourceAlpha" operator="out"></feComposite></filter><path d="M18.07 251.03C42.79 135.58 136.28 41.83 252.57 16.36C308.04 4.04 369.07 6.75 422.17 23.45C463.45 36.61 517.83 70.44 549 102.37C589.2 143.51 619.93 201.97 629.38 255C648.09 362.11 614.55 461.48 535.23 534.15C469.03 594.69 373.59 624.97 284.61 613.9C162.08 598.66 57.4 511.17 23.86 395.93C10.11 348.54 8.17 298.22 18.07 251.03ZM292.98 562.33C288.22 564.21 285.56 565.25 285.04 565.46C268.05 572.35 244.41 563.17 237.53 546.88C237.29 546.33 236.15 543.54 234.09 538.52C226.99 539.28 223.06 539.7 222.26 539.78C215.82 540.4 195.62 541.66 177.77 542.28C148.96 543.54 144.88 544.17 144.88 547.3C144.88 558.15 207.87 589.48 250.43 599.7C272.36 604.92 291.92 607.01 322.22 607.42C323.51 607.44 329.96 607.51 341.57 607.63C340.39 606.65 330.93 598.8 329.74 597.82C318.14 587.39 310.04 579.8 305.46 575.07C304.62 574.22 300.47 569.97 292.98 562.33ZM471.4 564.62C472.47 560.24 474.41 552.93 475.7 548.34C479.57 533.52 482.57 490.92 481.07 468.59C480.22 456.69 479.35 447.08 478.93 447.08C478.7 447.08 470.54 452.3 460.87 458.56C424.97 481.95 371.01 506.59 330.39 518.28C329.21 518.61 323.34 520.28 312.77 523.29C311.98 528.3 311.56 531.09 311.48 531.64C310.62 536.24 307.6 544.17 304.6 549.18C304.24 549.77 302.44 552.77 299.23 558.15C306.05 565.04 309.85 568.87 310.62 569.64C331.25 590.31 351.67 605.75 358.33 605.75C361.78 605.75 374.03 603.88 385.84 601.59C408.63 596.99 440.23 586.76 458.29 577.77C467.53 573.19 469.68 571.1 471.4 564.62ZM584.03 465.45C581.71 458.94 580.42 455.32 580.16 454.6C578.01 448.75 573.08 436.22 568.77 426.62C568.27 425.47 565.77 419.69 561.25 409.29C555.84 410.16 552.82 410.65 552.22 410.75C545.77 411.59 541.04 410.96 536.1 408.45C535.63 408.22 533.26 407.04 529 404.9C522.43 411.17 518.78 414.65 518.04 415.35C512.03 421.19 502.99 429.13 497.84 432.88C497.22 433.35 494.14 435.64 488.59 439.77C488.21 468.59 488 484.59 487.95 487.79C487.3 523.5 486.45 538.94 483.86 548.34C481.93 555.23 480.43 561.71 480.22 562.75C480.22 565.46 486.01 562.54 501.28 552.09C521.27 538.31 556.52 503.66 571.56 482.79C572.39 481.63 576.55 475.85 584.03 465.45ZM276.65 498.44C258.17 495.31 239.47 511.17 239.47 529.76C239.47 537.9 247.63 551.26 255.15 555.65C263.32 560.45 275.36 561.08 285.46 556.9C293.21 553.77 300.94 543.12 303.09 533.1C306.1 518.49 292.77 500.94 276.65 498.44ZM160.58 388.21C153.87 382.56 150.14 379.43 149.4 378.8C136.72 367.95 131.99 358.97 131.99 344.78C131.99 325.98 140.8 310.33 155.85 303.02C162.73 299.46 164.02 297.8 163.15 294.04C158 272.74 153.48 248.1 151.34 229.74C147.46 194.45 147.67 195.07 140.15 192.57C131.13 189.44 125.76 184.64 122.09 176.08C119.95 171.07 118.24 169.39 115.44 170.23C113.28 170.65 106.2 171.69 99.74 172.53C93.3 173.16 78.89 176.08 68.14 179.2C66.83 179.57 60.24 181.38 48.37 184.64C44.5 193.66 42.35 198.66 41.92 199.67C26.88 234.32 20.21 269.62 20.21 312.41C20.21 350.21 23.86 372.34 35.48 406.36C50.31 449.38 71.81 484.25 102.97 515.35C120.59 533.1 122.96 534.77 130.48 534.77C131.02 534.77 133.66 534.77 138.44 534.77C138.44 533.35 138.44 522 138.44 520.58C143.45 469.77 149.25 431.77 155.85 406.57C156.16 405.35 157.74 399.23 160.58 388.21ZM239.68 507C240.11 506.36 242.26 503.16 246.13 497.4C236.71 480.11 231.49 470.51 230.43 468.59C221.62 452.72 209.8 428.71 204 415.14C203.3 413.49 199.79 405.28 193.46 390.5C185.73 390.87 181.43 391.08 180.56 391.13C165.73 391.75 167.88 388.21 158.86 427.25C153.48 450.84 148.11 490.09 146.17 518.69C146.12 519.76 145.82 525.12 145.32 534.77C160.92 534.65 169.59 534.58 171.33 534.56C185.73 534.56 204.64 533.73 213.24 532.89C229.57 531.43 233.01 529.34 233.01 520.99C233.01 518.69 236.03 512.43 239.68 507ZM478.49 438.31C477.58 430.67 477.09 426.42 476.99 425.58C475.26 408.87 466.24 364.83 460.66 344.78C454.64 323.07 439.16 277.34 437 274.62C430.35 266.48 367.15 229.32 332.33 213.45C331.3 212.96 326.13 210.53 316.85 206.14C311.43 211.4 308.42 214.32 307.81 214.91C294.27 228.28 284.39 229.95 259.88 222.84C256.44 221.8 253.22 224.72 242.47 239.76C229.14 258.34 205.08 297.8 205.08 300.93C205.08 301.76 208.3 304.9 212.39 308.03C235.16 324.95 233.45 365.44 209.37 381.1C204.64 384.03 200.77 387.16 200.77 387.79C200.77 391.75 227.43 448.12 239.26 469.63C249.99 489.04 254.3 494.69 256.66 493.64C258.38 493.01 264.4 491.97 269.99 491.34C283.96 490.3 298.15 496.99 304.6 507.84C307.17 512.22 309.75 515.98 310.18 515.98C310.62 515.98 320.72 513.05 332.75 509.51C374.88 496.99 422.6 474.85 459.37 450.84C460.63 450 467.01 445.82 478.49 438.31ZM622.3 265.44C621.22 265.44 618.86 269.83 616.7 275.46C608.53 296.13 594.35 323.48 582.31 341.43C581.5 342.67 577.41 348.87 570.06 360.02C572.38 363.9 573.67 366.05 573.93 366.48C579.31 375.47 578.87 389.25 572.64 397.39C567.91 403.66 567.7 404.29 571.14 412.42C582.31 439.98 588.76 455.44 589.41 455.44C589.62 455.44 593.49 448.12 597.57 439.36C617.13 398.22 624.23 368.57 625.74 322.44C626.8 288.61 625.52 265.44 622.3 265.44ZM520.4 393.84C515.67 384.24 515.9 378.8 521.05 368.78C523.42 364.2 524.71 358.76 524.06 356.68C522.77 352.29 455.28 286.31 452.27 286.31C451.19 286.31 452.27 291.74 454.64 298.42C465.16 327.65 480.22 389.67 483.43 416.81C484.3 423.7 485.59 429.96 486.01 431.01C487.09 432.67 492.03 428.92 512.24 411.38C513.81 410.01 517.76 406.61 524.06 401.15C521.87 396.76 520.65 394.33 520.4 393.84ZM525.35 381.73C525.57 398.43 543.62 408.24 559.52 400.31C570.06 394.88 573.5 380.68 566.83 369.83C555.44 350.84 525.13 359.6 525.35 381.73ZM185.08 304.06C176.48 302.81 173.04 303.43 163.15 308.24C147.46 315.54 140.59 326.4 140.59 343.73C140.59 375.47 172.19 393.21 201.2 377.77C227.22 363.57 227.64 324.74 201.85 309.29C198.41 307.2 190.89 304.9 185.08 304.06ZM577.37 335.59C589.2 317.01 600.37 294.88 609.4 273.16C609.68 272.49 611.03 269.15 613.49 263.14C613.06 262.61 610.9 259.97 607.03 255.21C603.03 250.45 600.81 247.8 600.37 247.27C586.57 246.52 578.91 246.1 577.37 246.01C513.32 242.68 458.5 220.75 400.9 175.04C399.4 173.78 404.76 185.68 412.94 201.76C421.31 217.84 431.63 239.76 436.14 250.61C444.1 269.41 445.18 270.66 462.8 284.86C483.86 301.97 508.59 325.98 522.98 343.31C529.86 351.66 533.73 354.79 536.1 353.75C537.82 352.91 542.77 352.29 546.85 352.29C550.93 352.29 556.73 352.91 559.75 353.75C564.69 355 565.98 353.54 577.37 335.59ZM250.64 216.79C247.67 211.66 246.03 208.8 245.7 208.23C242.9 203.43 240.11 195.49 239.47 190.49C239.39 189.86 239.03 186.73 238.39 181.08C228.2 178.96 222.54 177.78 221.41 177.54C211.95 175.45 198.83 173.36 192.39 172.53C191.58 172.44 187.58 172.02 180.35 171.27C178.03 176.29 176.74 179.07 176.48 179.62C173.69 185.68 170.25 189.03 164.02 191.53C159.5 193.61 155.63 196.33 155.63 197.37C155.85 207.6 162.51 254.37 166.38 273.16C166.71 274.72 168.36 282.51 171.33 296.55C177.91 297.04 181.56 297.33 182.29 297.39C188.31 297.8 194.33 298.01 195.39 297.8C196.69 297.6 203.14 287.77 210.01 275.87C216.89 263.97 228.93 245.81 236.67 235.37C237.6 234.13 242.26 227.94 250.64 216.79ZM374.67 150.82C368.48 151.57 365.04 151.99 364.35 152.07C355.97 152.9 352.1 152.27 345.22 148.52C344.64 148.2 341.7 146.6 336.41 143.71C330.34 148.61 326.98 151.31 326.31 151.86C320.72 156.24 314.7 161.05 312.98 162.3C310.4 164.18 310.62 165.63 314.48 171.69C317.27 176.29 319 182.55 319.21 189.23C319.21 189.92 319.21 193.4 319.21 199.67C338.17 208.69 348.71 213.7 350.81 214.71C368.22 222.84 392.51 236.21 404.98 244.36C417.44 252.28 428.41 258.96 429.27 258.96C430.35 259.17 430.35 257.09 429.7 254.58C426.48 244.77 396.38 185.68 385.84 168.56C385.1 167.38 381.37 161.46 374.67 150.82ZM611.76 234.53C605.95 240.18 610.47 255 618.21 255C621.65 255 622.3 254.17 621.22 250.4C620.36 247.69 619.28 242.47 618.43 238.92C617.13 231.41 615.84 230.58 611.76 234.53ZM608.32 209.06C591.12 162.72 558.89 117.83 521.69 87.97C520.53 87.02 514.64 82.29 504.07 73.77C492.08 76.15 485.42 77.48 484.08 77.74C459.58 82.75 423.89 94.44 404.33 104.05C403.34 104.52 398.4 106.88 389.5 111.15C390.41 116.03 390.91 118.75 391.01 119.29C392.08 125.55 391.22 129.72 387.57 137.04C381.76 148.1 380.9 146.85 408.85 170.65C460.87 215.12 517.4 236.21 594.57 240.18C599.08 240.38 601.22 238.92 603.81 234.12C605.53 230.78 608.53 227.23 610.47 226.19C613.49 224.51 613.26 222.63 608.32 209.06ZM292.13 160.84C280.52 155.82 269.99 157.08 260.74 164.6C235.59 185.26 250.64 221.59 283.1 218.87C291.69 218.26 295.14 216.59 301.37 210.53C308.04 203.85 309.1 201.55 309.75 190.91C310.83 175.45 305.67 166.68 292.13 160.84ZM140.8 145.18C133.71 148.73 127.69 158.12 127.69 165.23C127.69 172.74 134.13 182.13 141.23 185.05C150.04 188.82 152.4 188.82 159.94 185.05C168.52 180.67 172.83 173.99 172.83 165.02C172.83 148.94 155.21 138.08 140.8 145.18ZM123.82 153.11C127.47 145.59 131.13 142.25 138.22 138.91C138.86 138.61 142.09 137.08 147.9 134.32C150.08 123.3 151.31 117.17 151.55 115.94C155.85 94.44 161.65 77.11 169.39 63.96C174.54 54.78 174.54 54.57 170.04 57.07C132.42 76.48 91.79 114.69 66.85 154.15C59.98 164.6 54.6 173.57 54.6 174.2C54.6 174.83 62.12 173.16 71.37 170.44C80.39 167.93 95.01 165.02 103.4 164.18C105.46 163.98 110.63 163.49 118.88 162.72C121.85 156.95 123.48 153.76 123.82 153.11ZM306.1 159.38C312.68 153.61 316.33 150.41 317.06 149.77C323.08 144.55 328.89 140.16 329.96 140.16C331.03 140.16 331.25 134.53 330.39 127.43C329.31 116.57 329.74 114.06 333.83 108.64C334.14 108.22 335.71 106.13 338.56 102.37C334.56 97.49 332.34 94.78 331.89 94.24C322.87 83.17 301.37 64.38 286.11 54.15C265.9 40.79 251.28 35.14 233.66 34.1C219.91 33.26 216.68 33.89 206.37 38.7C181.43 50.6 164.02 81.92 158 124.93C156.5 135.79 156.5 135.79 162.94 138.08C172.19 141.21 176.91 146.01 179.27 154.99C181.21 162.09 182.5 163.14 189.6 164.39C193.89 165.02 206.37 167.3 216.89 169.39C243.34 174.41 242.47 174.41 248.28 166.47C259.03 151.24 278.8 146.43 296.85 154.99C297.48 155.28 300.55 156.74 306.1 159.38ZM358.97 100.49C355.97 100.49 350.16 103.42 345.87 106.97C339.41 112.39 338.35 114.9 338.35 122.21C338.35 132.44 342.85 139.53 352.1 143.51C360.26 146.85 359.84 146.85 368.01 144.13C375.32 141.62 383.48 130.98 383.48 123.68C383.48 111.99 371.23 100.49 358.97 100.49ZM493.76 68.56C490.79 66.17 489.14 64.86 488.8 64.59C480.86 58.33 450.33 42.88 432.06 35.77C407.34 26.38 373.59 19.08 346.72 17.61C345.16 17.53 337.35 17.11 323.29 16.36C324.07 20.61 324.49 22.99 324.58 23.45C327.37 38.49 334.47 62.5 340.7 78.16C341.15 79.23 343.37 84.59 347.37 94.24C354.21 94.24 358 94.24 358.76 94.24C367.15 94.24 371.88 95.49 377.25 99.24C381.34 101.96 384.77 104.46 385.2 104.46C385.42 104.67 392.3 101.54 400.25 97.58C417.88 89.01 461.08 74.6 479.99 71.06C480.91 70.89 485.5 70.06 493.76 68.56ZM315.99 16.36C305.28 17.11 299.34 17.53 298.15 17.61C274.07 19.27 241.61 25.54 247.2 27.63C277.94 38.49 292.77 47.25 316.85 68.97C325.66 76.9 333.18 83.17 333.39 82.96C333.39 82.96 330.82 74.81 327.37 65C324.16 55.19 320.08 40.37 318.56 31.81C318.4 30.78 317.53 25.63 315.99 16.36Z" id="b27zoAVq2O" fill="white" fill-opacity="1" filter="url(#shadow4265176)"></path></g><use xlink:href="#f4druPnua" opacity="1" fill="#fd5f00" fill-opacity="1"></use><g><use xlink:href="#f4druPnua" opacity="1" fill-opacity="0" stroke="#fd5f00" stroke-width="6" stroke-opacity="1"></use></g></g><g><use xlink:href="#a37DnGGpts" opacity="1" fill="#fd5f00" fill-opacity="0"></use><g><use xlink:href="#a37DnGGpts" opacity="1" fill-opacity="0" stroke="#000000" stroke-width="1" stroke-opacity="0"></use></g></g><g><use xlink:href="#hpX2ByR4t" opacity="1" fill="#ffffff" fill-opacity="1"></use><g><use xlink:href="#hpX2ByR4t" opacity="1" fill-opacity="0" stroke="#000000" stroke-width="1" stroke-opacity="0"></use></g></g><g><use xlink:href="#h1nuuliej" opacity="1" fill="#000000" fill-opacity="0"></use><g><use xlink:href="#h1nuuliej" opacity="1" fill-opacity="0" stroke="#000000" stroke-width="1" stroke-opacity="0"></use></g></g></g></g></svg>